<svg viewBox="0 0 1000 1000" xmlns="http://www.w3.org/2000/svg"><g transform="matrix(5,0,0,5,0,0)"><path d="M66.416,42.225c-1.862,1.744-9.2,8.686-11.337,10.059-.3-.365-4.8-6.428-4.8-6.428a.88.88,0,0,0-1.45.034L38.764,61.076l-6.372-2.512a.76.76,0,0,0-.913.251L17.641,77.46a.607.607,0,0,0,.525.97L65.354,75.2a.874.874,0,0,0,.811-.822l1.77-31.444A.9.9,0,0,0,66.416,42.225Z" fill="#c7423f"></path><path d="M72.157,119.539,9.43,128.856a2.307,2.307,0,0,1-2.666-2.329V36.261a2.5,2.5,0,0,1,.714-1.621,2.255,2.255,0,0,1,1.644-.662c9.978.171,88.176,1.495,93.211,1.575a2.548,2.548,0,0,1,2.438,2.375V89.455a.71.71,0,0,0,1.4,0V37.928a3.835,3.835,0,0,0-3.819-3.985c-5.024-.1-83.221-1.575-93.2-1.758a4.029,4.029,0,0,0-4.133,4.076c0,96.62-.192,90.65.4,91.944A4.043,4.043,0,0,0,9.681,130.5l62.659-9.773a.612.612,0,0,0,.5-.685A.6.6,0,0,0,72.157,119.539Zm62.636-9.533-7.878,1.1a2.839,2.839,0,0,1-2.957-1.644c-.38-.867-.2,1.527-.115-28.9a2.653,2.653,0,0,1,2.467-2.648c38.4-2.61,36.7-2.787,37.7-2.432a2.833,2.833,0,0,1,1.918,2.637l.08,6.679a.6.6,0,0,0,1.21,0c.049-7.187.216-7.265-.24-8.369a4.288,4.288,0,0,0-4.2-2.6c-3.448.206-31.878,1.987-36.582,2.3a4.455,4.455,0,0,0-4.156,4.441c.012,3.848.1,24.879.126,27.733a4.284,4.284,0,0,0,4.967,4.2l7.843-1.3a.6.6,0,0,0,.5-.685A.61.61,0,0,0,134.793,110.006Zm28.395-74.784c-40.1-.986-37.238-1.058-38.363-.594a4.411,4.411,0,0,0-2.768,4.042V66.517a4.361,4.361,0,0,0,4.675,4.384l36.684-2.489a4.159,4.159,0,0,0,3.939-4.338V39.321a4.293,4.293,0,0,0-4.167-4.088Zm-.012,1.21a2.913,2.913,0,0,1,2,.879,2.818,2.818,0,0,1,.708,2.01V64.074A2.839,2.839,0,0,1,163.3,66.7l-36.7,2.409a2.637,2.637,0,0,1-2.78-2.592c0-30.409-.081-28.177.189-28.863a2.655,2.655,0,0,1,1.45-1.427c.737-.29-2.159-.23,37.711.217Z" fill="#333333"></path><path d="M19.021,76.857c2.352-.183,46.229-3.129,46.229-3.129a.594.594,0,0,1,.65.548.615.615,0,0,1-.559.663L18.187,78.718a.865.865,0,0,1-.673-.24c-.183-.171-.138-.411-.138-.662V42.879c0-.32.423-.594.743-.594a.607.607,0,0,1,.605.594S19.021,74.345,19.021,76.857Z" fill="#333333"></path><path d="M135.167,93.285c1-.2,1.9-2.79,2.4-3.79a.618.618,0,0,1,.81-.309.606.606,0,0,1,.309.8,14.846,14.846,0,0,1-1.542,3.813c-.811,1.118-2.226,1.724-3.208.742-.788-.766-1.043-2.484-2.135-3.414-.449-.419-.8-.3-1.279.08a6.909,6.909,0,0,0-.982.982,15.763,15.763,0,0,0-2.18,4.476.587.587,0,0,1-.742.422.6.6,0,0,1-.423-.719,13.159,13.159,0,0,1,1.975-5.241c2.267-3.023,4.668-2.837,6.508,1.165A3.255,3.255,0,0,0,135.167,93.285Z" fill="#c7423f"></path><path d="M139.4,40.7a11.354,11.354,0,0,0,0,22.7,11.012,11.012,0,0,0,10.79-11.348C150.065,46.142,145.649,40.7,139.4,40.7Zm0,20.952a9.416,9.416,0,0,1-9.2-9.6c0-5.638,4.63-9.942,9.693-9.6-.089,1.543-.55,8.074-.607,9.455a.9.9,0,0,0,1.347.788,83.387,83.387,0,0,0,7.256-5C150.868,54.188,146.2,61.707,139.4,61.647Z" fill="#c7423f"></path><path d="M74.772,86.432a.619.619,0,0,0-.651-.57S24.569,89.024,21,89.275a3.363,3.363,0,0,0-3.116,3.289c-.034,2.42-.3,26.979-.3,26.979a.6.6,0,0,0,1.2.023s.418-12.833.675-20.857l6.12-.392c-.341,6.179-.741,14.391-.7,20.557a.606.606,0,1,0,1.21.057c.641-6.388,1-14.262,1.235-20.727,10.319-.664,36.058-2.537,38.277-2.749-.407,6.255-.793,12.5-.793,18a.612.612,0,0,0,1.222.069c.505-5.44.979-11.249,1.337-18.239,1.371-.135,2.154-.217,2.154-.217a.609.609,0,0,0,.559-.65.6.6,0,0,0-.65-.56s-.725.029-2,.088c.075-1.7.112-4.662.117-6.372l6.651-.5A.611.611,0,0,0,74.772,86.432ZM19.5,97.493c.079-2.47.137-4.314.153-4.895a1.589,1.589,0,0,1,1.485-1.553c.584-.039,2.4-.173,5.039-.368-.133,1.539-.423,4.928-.511,6.209C25.5,96.9,20.4,97.4,19.5,97.493ZM65.7,94.025c.105,0-25.671,1.726-38.327,2.725.034-1.166.069-5.548.068-6.167,9.81-.729,28.353-2.124,38.9-2.919C66.268,88.373,65.8,92.921,65.7,94.025Z" fill="#333333"></path><path d="M74.34,48.48a15.181,15.181,0,0,0,3.037.034A23.907,23.907,0,0,0,81.853,48a.605.605,0,0,0-.023-1.21c-.64-.08-1.267-.171-1.918-.194a32.208,32.208,0,0,0-3.814.251,16.575,16.575,0,0,0-1.872.446.585.585,0,0,0-.537.65A.609.609,0,0,0,74.34,48.48Z" fill="#333333"></path><path d="M91.153,47.728a23.692,23.692,0,0,0,4.316-.035,14.811,14.811,0,0,0,2.9-.411.612.612,0,0,0-.069-1.221,17.5,17.5,0,0,0-2.8-.16,13.2,13.2,0,0,0-4.5.639.6.6,0,1,0,.148,1.188Z" fill="#333333"></path><path d="M73.085,55.594a24.493,24.493,0,0,0,2.455.308,44.231,44.231,0,0,0,4.932-.08c.822-.079,1.633-.228,2.444-.365a.606.606,0,1,0-.069-1.21,54.363,54.363,0,0,0-7.3-.069c-.663.019-2.151.194-2.432.217a.6.6,0,0,0-.034,1.2Z" fill="#c7423f"></path><path d="M89.024,54.925a28.786,28.786,0,0,0,2.969.308,54.588,54.588,0,0,0,5.914-.16c.993-.091,1.964-.251,2.934-.388a.606.606,0,1,0-.057-1.21c-.708-.034-1.416-.08-2.124-.091-1.863-.046-7.4.164-7.638.182-.651.046-1.3.115-1.964.16a.6.6,0,0,0-.034,1.2Z" fill="#c7423f"></path><path d="M75.572,64.842c.348.033.974.126,1.439.126s2.271-.1,2.843-.183c.49-.068.947-.194,1.427-.3a.611.611,0,0,0-.023-1.221,12.1,12.1,0,0,0-4.384-.023,8.41,8.41,0,0,0-1.428.411.6.6,0,1,0,.126,1.187Z" fill="#333333"></path><path d="M70.739,72.653c.8.036,1.515.1,2.991.068,1.451-.033,4.536-.3,5.949-.513.982-.149,1.952-.377,2.934-.583a.61.61,0,0,0-.16-1.21,69.141,69.141,0,0,0-7.079.422,40.736,40.736,0,0,0-4.7.617.6.6,0,0,0-.559.639A.592.592,0,0,0,70.739,72.653Z" fill="#c7423f"></path><path d="M92.453,64.057a7.719,7.719,0,0,0,1.176.239,15.6,15.6,0,0,0,2.386.012,10.817,10.817,0,0,0,1.21-.263.611.611,0,1,0-.034-1.221,9.209,9.209,0,0,0-2.832-.274,5.413,5.413,0,0,0-1.929.308.617.617,0,0,0-.594.616A.607.607,0,0,0,92.453,64.057Z" fill="#333333"></path><path d="M88.472,72.045c.872.02,1.734.075,3.049.046a50.99,50.99,0,0,0,9.1-.879.614.614,0,0,0-.115-1.222,62.868,62.868,0,0,0-7.273.229,32.2,32.2,0,0,0-4.852.639.578.578,0,0,0-.548.639A.6.6,0,0,0,88.472,72.045Z" fill="#c7423f"></path><path d="M21.83,101.865a2.861,2.861,0,0,0,.057,1.964c.219.818,1.031.789,1.211-.034a3.009,3.009,0,0,0-.069-1.952c-.11-.313-.274-.6-.605-.594S21.914,101.545,21.83,101.865Z" fill="#333333"></path><path d="M36.219,103.554c4.458-.518,9.652-.9,17.457-2.443a.624.624,0,0,0,.525-.7.613.613,0,0,0-.685-.514c-2.86.231-2.244.095-6.759.583a63.8,63.8,0,0,0-10.767,1.884.615.615,0,0,0-.468.707A.606.606,0,0,0,36.219,103.554Z" fill="#333333"></path><path d="M34.1,112.19c.1,0,1.118.017,1.553-.023a18.746,18.746,0,0,0,4.51-.947.61.61,0,0,0-.149-1.211,15.007,15.007,0,0,0-1.587-.034,21.611,21.611,0,0,0-3.083.491,13.516,13.516,0,0,0-1.484.548.615.615,0,0,0-.468.708A.6.6,0,0,0,34.1,112.19Z" fill="#333333"></path><path d="M81.81,99.038c5.351-.128,10.172-1.163,15.459-2a.594.594,0,0,0,.549-.65.611.611,0,0,0-.651-.56c-1.268.023-2.523.057-3.779.16a115.5,115.5,0,0,0-11.7,1.861.6.6,0,1,0,.125,1.187Z" fill="#c7423f"></path><path d="M76.642,108.087a162.91,162.91,0,0,0,16.372-2.946.606.606,0,0,0,.491-.7.618.618,0,0,0-.708-.5c-3.419.383-2.967.237-6.348.777a58.628,58.628,0,0,0-10.07,2.192A.6.6,0,0,0,76.642,108.087Z" fill="#c7423f"></path><path d="M87.407,112.1a45.164,45.164,0,0,0,5.926-.765,29.068,29.068,0,0,0,3.916-.867.612.612,0,0,0-.171-1.211,29.954,29.954,0,0,0-5.012.468,22.358,22.358,0,0,0-4.91,1.2.6.6,0,0,0,.251,1.176Z" fill="#c7423f"></path><path d="M155.109,46.512a12.764,12.764,0,0,0,1.45.2,21.246,21.246,0,0,0,2.934-.091,13.328,13.328,0,0,0,1.473-.331.615.615,0,0,0,.559-.663.6.6,0,0,0-.662-.548,13.462,13.462,0,0,0-3.471-.148,8.059,8.059,0,0,0-2.34.377.592.592,0,0,0-.571.628A.6.6,0,0,0,155.109,46.512Z" fill="#333333"></path><path d="M155.132,52.555a3.681,3.681,0,0,0,2.238-.08c.8-.193.805-1.047-.035-1.21a4.1,4.1,0,0,0-2.249.1c-.317.1-.582.274-.571.617S154.808,52.484,155.132,52.555Z" fill="#c7423f"></path><path d="M154.194,59.5a27.685,27.685,0,0,0,4.647.022,20.279,20.279,0,0,0,3.117-.331.62.62,0,0,0,.6-.628.608.608,0,0,0-.616-.593,18.118,18.118,0,0,0-3.939-.217,13.308,13.308,0,0,0-3.939.559.6.6,0,1,0,.125,1.188Z" fill="#c7423f"></path><path d="M143.982,114.877a2.43,2.43,0,0,0,1.586.262,3.545,3.545,0,0,0,2.5-3.608.6.6,0,0,0-.5-.7.618.618,0,0,0-.708.491A8.4,8.4,0,0,1,145.74,113a2,2,0,0,1-.765.537,1.53,1.53,0,0,1-.651.182.617.617,0,0,0-.754.411A.6.6,0,0,0,143.982,114.877Z" fill="#333333"></path><path d="M146.768,101.854c.4.6,0,1.575-.9,2.169s-1.941.594-2.34,0,0-1.564.89-2.169S146.371,101.258,146.768,101.854Z" fill="#333333"></path><path d="M117.546,112.507a11.772,11.772,0,0,1,1.7,2.706,13.276,13.276,0,0,1,1.29,6.189,15.33,15.33,0,0,1-.32,3.242.61.61,0,0,0,.411.765.6.6,0,0,0,.754-.411,13.172,13.172,0,0,0,.868-3.505,12.627,12.627,0,0,0-1.473-7.079,9.611,9.611,0,0,0-2.4-2.774A.6.6,0,0,0,117.546,112.507Z" fill="#333333"></path><path d="M122.239,113.919c.2.3.612,1.222.674,1.347a12.459,12.459,0,0,1,.959,2.843c.126.525.286,1.027.365,1.53a.611.611,0,0,0,1.222-.012,9.235,9.235,0,0,0,.1-1.781,8.2,8.2,0,0,0-1.153-3.448,4.937,4.937,0,0,0-1.3-1.313.61.61,0,0,0-.856-.023A.6.6,0,0,0,122.239,113.919Z" fill="#333333"></path><path d="M126.509,114.108c.038.141.183,1.011.229,1.21.08.389.171.777.239,1.176s.092.811.16,1.211c.057.445.172.845.217,1.267a.612.612,0,0,0,1.222.08,8.055,8.055,0,0,0,.274-1.4,7.716,7.716,0,0,0-.468-2.855,5.4,5.4,0,0,0-.811-1.256.6.6,0,0,0-1.062.571Z" fill="#333333"></path><path d="M132.2,124.282c1.826,1.112,4.262,2.312,6.5,3.951a.608.608,0,0,1-.651,1.027c-2.152-1.187-4.418-1.966-7.33-3.79a.893.893,0,0,1-.4-.971,22.573,22.573,0,0,0-.422-10.093.6.6,0,1,1,1.142-.388A17.4,17.4,0,0,1,132.2,124.282Z" fill="#333333"></path><path d="M123.906,130.376c-5.385,1.747-10.876-1.944-11.28-7a5.526,5.526,0,0,1,.08-1.736.614.614,0,0,1,.7-.5.622.622,0,0,1,.491.7,4.348,4.348,0,0,0,.08,1.336,7.421,7.421,0,0,0,9.751,5.4.88.88,0,0,1,.822.1c2.178,1.622,3.042,2.127,6.131,4.647a.605.605,0,0,1,.125.857.611.611,0,0,1-.844.125C127.943,132.94,125.879,131.766,123.906,130.376Z" fill="#333333"></path><path d="M117.333,119.5c-1.2-2.9-.587-2.473-1.073-2.728-.606-.319-8.374-4.464-11.122-6.164A18.243,18.243,0,0,0,104.916,94h.011A18.322,18.322,0,0,0,80.3,85.563a18.6,18.6,0,1,0,22.858,28.194c1.139.653,2.387,1.161,3.477,1.781a97.478,97.478,0,0,0,9.762,4.852A.7.7,0,0,0,117.333,119.5Zm-21.574-3.235A15.768,15.768,0,0,1,81.579,88.1,16.063,16.063,0,0,1,103.123,94.9h.012A16.1,16.1,0,0,1,95.759,116.264Z" fill="#333333"></path><path d="M168.059,97.6a6.171,6.171,0,0,0-3.037-3.916,7.368,7.368,0,0,0-2.569-9.351c-4.039-2.77-10.6-2.33-14.18-5.526-1.02-.91-1.832-1.975-3.334-1.975a2.045,2.045,0,0,0-2.078,2.2,3.48,3.48,0,0,0-2.569-.058c-1.208.677-.675,2.138-.422,2.718a1.737,1.737,0,0,0-1.735,1.5c-.265,1.323.617,3.337,1.187,4.568,1.738,3.732,4.21,7.879,8.072,9.3,0,.363.019.729.046,1.1-1.651-1.51-5.314.151-4.71,1.273.348.621,1.221.149,2.557-.046,1.064-.155,1.862.04,2.253-.225a18.281,18.281,0,0,0,1.589,5.527.907.907,0,0,0,1.028.48c1.908-.466,4.3,1.228,3.3,3.231a3.78,3.78,0,0,1-2.706,1.473.878.878,0,0,0-.731.9,11.133,11.133,0,0,0,4.087,8.472.857.857,0,0,0,1.039.022c2.5-1.817,4.386-4.32,6.3-6.645C164.217,109.268,169.837,103.942,168.059,97.6Z" fill="#333333"></path><path d="M194.991,160.69a46.026,46.026,0,0,0-3.14-9.6c-3.736-8.919-9.338-16.91-18.233-20.9-3.844-1.709-7.471-1.776-11.441-2.478.246-3.668.5-3.777.08-4.293a.948.948,0,0,0-.662-.3,64.5,64.5,0,0,0-7.327.288,19.8,19.8,0,0,0-.291-3.972.605.605,0,1,0-1.21.046,13.936,13.936,0,0,0,.154,4.053c-1.577.161-3.359.384-5.631.738,0-.315.01-2.984-.039-3.689a.738.738,0,0,0-.742-.673c-3.969-.054-4.629-5.58-4.761-9.545a.911.911,0,0,0-.685-.845l-2.1-.536a124.232,124.232,0,0,1,4.373-12.172.6.6,0,1,0-1.1-.5c-1.817,3.873-3.567,6.858-5.24,13.1a.891.891,0,0,0,.662,1.1l2.318.6c.231,4.524,1.347,9.916,5.88,10.253.03.312.14,2.255.189,3.111-1.558.256-3.121.536-4.7.829a.91.91,0,0,0-.731.833c-.093,1.58-.25,2.564-.319,4.419-14.843,5.639-25.808,20.831-26.6,36.627a.618.618,0,0,0,.571.639.6.6,0,0,0,.639-.57c1.211-18.017,16.608-34.245,30.3-35.849.856-.1,10.846-1.234,12.136-1.405,16.288-2.088,26.711,6.787,33.217,21.657a45.013,45.013,0,0,1,3.231,9.271.61.61,0,0,0,.708.491A.627.627,0,0,0,194.991,160.69Zm-45.867-31.579a45.6,45.6,0,0,0-7.025,1.329c.047-1.1.2-2.69.269-3.5a103.122,103.122,0,0,1,18.245-2.032c-.085,1.058-.143,2.089-.306,3.3C158.457,128.3,154.422,128.4,149.124,129.111Z" fill="#333333"></path><path d="M138.96,160c-.022.338-.046,2.357-.046,2.694,0,.986-.088,3.642.834,3.642.813,0,.85-1.742.959-3.493a24.364,24.364,0,0,0-.057-3.186c-.164-1.232-.283-2.134-.959-2.089C139.115,157.612,139.1,158.124,138.96,160Z" fill="#333333"></path><path d="M179.841,157.267c.1.464.435,1.963.582,2.42.346,1.251.565,2.194,1.233,2.078.709-.122.575-1.146.423-2.489a30.89,30.89,0,0,0-.754-3.425c-.517-1.553-.788-2.226-1.381-2.078C179.092,153.956,179.561,155.9,179.841,157.267Z" fill="#333333"></path></g></svg>