<svg fill="none" height="573" viewBox="0 0 888 573" width="888" xmlns="http://www.w3.org/2000/svg" xmlns:xlink="http://www.w3.org/1999/xlink"><clipPath id="a"><path d="m0 0h888v572.011h-888z"/></clipPath><g clip-path="url(#a)"><g fill="#e6e6e6"><path d="m39.5 318.709h6v5h-6z"/><path d="m613.029 323.709h-11.823v-5h11.823zm-23.646 0h-11.824v-5h11.824zm-23.648 0h-11.823v-5h11.823zm-23.646 0h-11.824v-5h11.824zm-23.648 0h-11.823v-5h11.823zm-23.647 0h-11.823v-5h11.823zm-23.647 0h-11.823v-5h11.823zm-23.647 0h-11.823v-5h11.823zm-23.647 0h-11.823v-5h11.823zm-23.647 0h-11.824v-5h11.824zm-23.647 0h-11.824v-5h11.824zm-23.647 0h-11.824v-5h11.824zm-23.647 0h-11.824v-5h11.824zm-23.647 0h-11.824v-5h11.824zm-23.647 0h-11.824v-5h11.824zm-23.647 0h-11.824v-5h11.824zm-23.647 0h-11.824v-5h11.824zm-23.647 0h-11.824v-5h11.824zm-23.648 0h-11.823v-5h11.823zm-23.647 0h-11.823v-5h11.823zm-23.647 0h-11.823v-5h11.823zm-23.647 0h-11.823v-5h11.823zm-23.6469 0h-11.8234v-5h11.8237zm-23.647 0h-11.8234v-5h11.8238z"/><path d="m39.5 191.709h6v5h-6z"/><path d="m613.029 196.709h-11.823v-5h11.823zm-23.646 0h-11.824v-5h11.824zm-23.648 0h-11.823v-5h11.823zm-23.646 0h-11.824v-5h11.824zm-23.648 0h-11.823v-5h11.823zm-23.647 0h-11.823v-5h11.823zm-23.647 0h-11.823v-5h11.823zm-23.647 0h-11.823v-5h11.823zm-23.647 0h-11.823v-5h11.823zm-23.647 0h-11.824v-5h11.824zm-23.647 0h-11.824v-5h11.824zm-23.647 0h-11.824v-5h11.824zm-23.647 0h-11.824v-5h11.824zm-23.647 0h-11.824v-5h11.824zm-23.647 0h-11.824v-5h11.824zm-23.647 0h-11.824v-5h11.824zm-23.647 0h-11.824v-5h11.824zm-23.647 0h-11.824v-5h11.824zm-23.648 0h-11.823v-5h11.823zm-23.647 0h-11.823v-5h11.823zm-23.647 0h-11.823v-5h11.823zm-23.647 0h-11.823v-5h11.823zm-23.6469 0h-11.8234v-5h11.8237zm-23.647 0h-11.8234v-5h11.8238z"/><path d="m39.5 64.7089h6v5h-6z"/><path d="m613.029 69.7089h-11.823v-5h11.823zm-23.646 0h-11.824v-5h11.824zm-23.648 0h-11.823v-5h11.823zm-23.646 0h-11.824v-5h11.824zm-23.648 0h-11.823v-5h11.823zm-23.647 0h-11.823v-5h11.823zm-23.647 0h-11.823v-5h11.823zm-23.647 0h-11.823v-5h11.823zm-23.647 0h-11.823v-5h11.823zm-23.647 0h-11.824v-5h11.824zm-23.647 0h-11.824v-5h11.824zm-23.647 0h-11.824v-5h11.824zm-23.647 0h-11.824v-5h11.824zm-23.647 0h-11.824v-5h11.824zm-23.647 0h-11.824v-5h11.824zm-23.647 0h-11.824v-5h11.824zm-23.647 0h-11.824v-5h11.824zm-23.647 0h-11.824v-5h11.824zm-23.648 0h-11.823v-5h11.823zm-23.647 0h-11.823v-5h11.823zm-23.647 0h-11.823v-5h11.823zm-23.647 0h-11.823v-5h11.823zm-23.6469 0h-11.8234v-5h11.8237zm-23.647 0h-11.8234v-5h11.8238z"/></g><path d="m186 320.209h49v180h-49z" fill="#3f3d56"/><path d="m195 320.209h49v180h-49z" fill="#06d6a0"/><path d="m302 193.209h49v307h-49z" fill="#3f3d56"/><path d="m311 193.209h49v307h-49z" fill="#06d6a0"/><path d="m418 66.2089h49v434.0001h-49z" fill="#3f3d56"/><path d="m427 66.2089h49v434.0001h-49z" fill="#06d6a0"/><path d="m40 79.2089c6.6274 0 12-5.3726 12-12 0-6.6275-5.3726-12-12-12s-12 5.3725-12 12c0 6.6274 5.3726 12 12 12z" fill="#e6e6e6"/><path d="m40 206.209c6.6274 0 12-5.373 12-12 0-6.628-5.3726-12-12-12s-12 5.372-12 12c0 6.627 5.3726 12 12 12z" fill="#e6e6e6"/><path d="m40 333.209c6.6274 0 12-5.373 12-12 0-6.628-5.3726-12-12-12s-12 5.372-12 12c0 6.627 5.3726 12 12 12z" fill="#e6e6e6"/><path d="m-209 499h888v2.241h-888z" fill="#3f3d56"/></g></svg>