<svg height="572.01129" viewBox="0 0 888 572.01129" width="888" xmlns="http://www.w3.org/2000/svg"><g fill="#e6e6e6"><path d="m39.5 318.70885h6v5h-6z"/><path d="m769.0293 487.70321h-11.82325v-5h11.82325zm-23.64649 0h-11.82422v-5h11.82422zm-23.64746 0h-11.82324v-5h11.82324zm-23.64648 0h-11.82422v-5h11.82422zm-23.64746 0h-11.82325v-5h11.82325zm-23.64746 0h-11.82325v-5h11.8233zm-23.64649 0h-11.82324v-5h11.82324zm-23.64746 0h-11.82324v-5h11.82324zm-23.647 0h-11.82321v-5h11.82321zm-23.647 0h-11.82368v-5h11.82373zm-23.647 0h-11.82365v-5h11.82373zm-23.647 0h-11.82362v-5h11.82373zm-23.647 0h-11.82359v-5h11.82373zm-23.64746 0h-11.82311v-5h11.82325zm-23.647 0h-11.82308v-5h11.82324zm-23.647 0h-11.82354v-5h11.82373zm-23.647 0h-11.82354v-5h11.82373zm-23.647 0h-11.82349v-5h11.82374zm-23.64747 0h-11.82299v-5h11.82324zm-23.647 0h-11.82296v-5h11.82324zm-23.647 0h-11.82293v-5h11.82324zm-23.647 0h-11.82339v-5h11.82373zm-23.647 0h-11.82337v-5h11.82373zm-23.647 0h-11.82334v-5h11.82373z" transform="translate(-156 -163.99436)"/><path d="m39.5 191.70885h6v5h-6z"/><path d="m769.0293 360.70321h-11.82325v-5h11.82325zm-23.64649 0h-11.82422v-5h11.82422zm-23.64746 0h-11.82324v-5h11.82324zm-23.64648 0h-11.82422v-5h11.82422zm-23.64746 0h-11.82325v-5h11.82325zm-23.64746 0h-11.82325v-5h11.8233zm-23.64649 0h-11.82324v-5h11.82324zm-23.64746 0h-11.82324v-5h11.82324zm-23.647 0h-11.82321v-5h11.82321zm-23.647 0h-11.82368v-5h11.82373zm-23.647 0h-11.82365v-5h11.82373zm-23.647 0h-11.82362v-5h11.82373zm-23.647 0h-11.82359v-5h11.82373zm-23.64746 0h-11.82311v-5h11.82325zm-23.647 0h-11.82308v-5h11.82324zm-23.647 0h-11.82354v-5h11.82373zm-23.647 0h-11.82354v-5h11.82373zm-23.647 0h-11.82349v-5h11.82374zm-23.64747 0h-11.82299v-5h11.82324zm-23.647 0h-11.82296v-5h11.82324zm-23.647 0h-11.82293v-5h11.82324zm-23.647 0h-11.82339v-5h11.82373zm-23.647 0h-11.82337v-5h11.82373zm-23.647 0h-11.82334v-5h11.82373z" transform="translate(-156 -163.99436)"/><path d="m39.5 64.70885h6v5h-6z"/><path d="m769.0293 233.70321h-11.82325v-5h11.82325zm-23.64649 0h-11.82422v-5h11.82422zm-23.64746 0h-11.82324v-5h11.82324zm-23.64648 0h-11.82422v-5h11.82422zm-23.64746 0h-11.82325v-5h11.82325zm-23.64746 0h-11.82325v-5h11.8233zm-23.64649 0h-11.82324v-5h11.82324zm-23.64746 0h-11.82324v-5h11.82324zm-23.647 0h-11.82321v-5h11.82321zm-23.647 0h-11.82368v-5h11.82373zm-23.647 0h-11.82365v-5h11.82373zm-23.647 0h-11.82362v-5h11.82373zm-23.647 0h-11.82359v-5h11.82373zm-23.64746 0h-11.82311v-5h11.82325zm-23.647 0h-11.82308v-5h11.82324zm-23.647 0h-11.82354v-5h11.82373zm-23.647 0h-11.82354v-5h11.82373zm-23.647 0h-11.82349v-5h11.82374zm-23.64747 0h-11.82299v-5h11.82324zm-23.647 0h-11.82296v-5h11.82324zm-23.647 0h-11.82293v-5h11.82324zm-23.647 0h-11.82339v-5h11.82373zm-23.647 0h-11.82337v-5h11.82373zm-23.647 0h-11.82334v-5h11.82373z" transform="translate(-156 -163.99436)"/></g><path d="m186 320.20885h49v180h-49z" fill="#3f3d56"/><path d="m195 320.20885h49v180h-49z" fill="#06d6a0"/><path d="m302 193.20885h49v307h-49z" fill="#3f3d56"/><path d="m311 193.20885h49v307h-49z" fill="#06d6a0"/><path d="m418 66.20885h49v434h-49z" fill="#3f3d56"/><path d="m427 66.20885h49v434h-49z" fill="#06d6a0"/><circle cx="40" cy="67.20885" fill="#e6e6e6" r="12"/><circle cx="40" cy="194.20885" fill="#e6e6e6" r="12"/><circle cx="40" cy="321.20885" fill="#e6e6e6" r="12"/><path d="m0 499.08849h888v2.24072h-888z" fill="#3f3d56"/><circle cx="756.34414" cy="59.79509" fill="#2f2e41" r="34.03721"/><path d="m830.0109 447.79106-1.83985 11.0391s-10.11917 37.7169 2.75977 35.877 8.27932-34.0372 8.27932-34.0372l1.83986-10.11912z" fill="#ffb9b9" transform="translate(-156 -163.99436)"/><path d="m943.62157 395.81533h-74.51388s-21.15827 33.11728-12.879 91.07252 4.59963 187.6646 4.59963 187.6646h28.51768l19.31841-203.30331 40.47668 203.30331 26.67781-2.75977-14.71876-234.58075z" fill="#2f2e41" transform="translate(-156 -163.99436)"/><path d="m868.64773 671.33271-.91993 34.03721s-11.959 34.03721 5.51955 30.35751 19.31841-11.0391 19.31841-13.79887-4.59962-50.59585-4.59962-50.59585z" fill="#2f2e41" transform="translate(-156 -163.99436)"/><path d="m971.14429 668.74665 5.26653 36.39965s16.21493 32.22771-1.59075 30.81417-20.57186-8.47712-20.9249-11.21421-1.91058-53.52833-1.91058-53.52833z" fill="#2f2e41" transform="translate(-156 -163.99436)"/><circle cx="756.8041" cy="68.53437" fill="#ffb9b9" r="24.83796"/><path d="m775.663 79.114 10.119 34.957-20.239 20.238-11.039-19.318-3.679-27.598z" fill="#ffb9b9"/><path d="m940.40184 266.56594s-1.35444-9.27857-4.35692-8.319-29.68029 7.39906-29.68029 10.15884v11.959l-22.07819 85.553-5.51955 34.95713 57.95525-.91992 9.19924-121.43z" fill="#e6e6e6" transform="translate(-156 -163.99436)"/><path d="m935.34225 256.90673 6.43947 1.83985 10.57913 10.57913s25.75789-4.59962 29.43759 7.3594-20.23834 160.98678-20.23834 160.98678-40.47668 13.79887-46.91615-21.15826-5.97951-64.85468 6.89943-86.93287 13.79887-72.67403 13.79887-72.67403z" fill="#2f2e41" transform="translate(-156 -163.99436)"/><path d="m908.65508 265.11583-3.67034 1.91007-3.21974 14.25883s-26.67781 7.3594-28.51766 17.47856.91992 65.31464.91992 65.31464-25.75788 52.4357-21.15826 74.51389c0 0 11.03909 9.19924 19.31841-2.75978s28.51766-83.71312 29.43759-88.31275 11.02038-81.09379 6.89008-82.40346z" fill="#2f2e41" transform="translate(-156 -163.99436)"/><path d="m727.367 131.089-9.851 2.671-6.708 19.407-13.799 49.676-26.678 81.874 18.399 8.279 29.437-59.795z" fill="#2f2e41"/><path d="m931.66255 229.309c-15.81558-5.7046-21.16736-9.20908-38.63683 0l-6.43947-25.75789h51.51575z" fill="#2f2e41" transform="translate(-156 -163.99436)"/><circle cx="753.58437" cy="23.91804" fill="#2f2e41" r="19.31841"/><path d="m886.58625 183.31277a19.30231 19.30231 0 0 1 18.39849-19.272c-.307-.01449-.60931-.04643-.91992-.04643a19.31841 19.31841 0 1 0 0 38.63682c.31061 0 .61291-.03194.91992-.04643a19.30234 19.30234 0 0 1 -18.39849-19.27196z" fill="#2f2e41" transform="translate(-156 -163.99436)"/><path d="m715.62535 287.10712h71.75411v30.53366h-71.75411z" fill="#06d6a0"/><path d="m715.62535 287.10712h71.75411v30.53366h-71.75411z" opacity=".1"/><circle cx="751.5024" cy="302.37395" opacity=".2" r="8.39676"/><path d="m732.419 315.351h-13.74v-25.954h14.503v1.527h-12.977v22.9h12.214z" opacity=".2"/><path d="m784.326 315.351h-13.74v-1.527h12.213v-22.9h-12.976v-1.527h14.503z" opacity=".2"/><path d="m868.86557 463.98042h71.75411v30.53366h-71.75411z" fill="#06d6a0" transform="matrix(.95454557 -.29806501 .29806501 .95454557 -257.72229 127.46174)"/><circle cx="748.74263" cy="315.25289" opacity=".2" r="8.39676"/><path d="m734.394 333.328-13.115 4.095-7.736-24.773 13.844-4.323.455 1.457-12.387 3.868 6.826 21.859 11.658-3.64z" opacity=".2"/><path d="m783.942 317.856-13.115 4.096-.455-1.458 11.658-3.64-6.826-21.859-12.387 3.868-.455-1.458 13.844-4.323z" opacity=".2"/><path d="m943.29584 432.56629-4.21112 10.36885s-11.1221 37.43342-21.13233 29.12394 10.76348-33.33508 10.76348-33.33508l3.72955-9.585z" fill="#ffb9b9" transform="translate(-156 -163.99436)"/><path d="m968.9195 279.44488 12.87894-2.75977a134.88963 134.88963 0 0 1 4.43947 16.55864c1.83985 9.19924-1 81.87328-2.83985 89.23267s-35.19924 56.39472-35.19924 56.39472l-30.02069-6.51348 43.382-65.51995z" fill="#2f2e41" transform="translate(-156 -163.99436)"/><path d="m806 162.209-8 44-30 61 27-64z" opacity=".2"/></svg>