<svg viewBox="0 0 1000 1000" xmlns="http://www.w3.org/2000/svg"><g transform="matrix(5,0,0,5,0,0)"><path d="M151.485,49.358c-15.065,3.287-22.315,15.7-19.668,27.316,2.03,8.9,8.735,15.283,19.99,16.262,5.206.453,10.8-.386,15.233-3.342.128-.065-.5-4.756-.45-5.914.08-1.734,1.086-1.277,1.864-.642a.481.481,0,0,0,.771-.45,13.009,13.009,0,0,1-.064-4.05c.251-1.286,1.7-2.129,2.185-.45.2.7.118,1.545.257,2.25.179.9,3.278,1.478,3.471,1.543A18.741,18.741,0,0,0,179.9,69.99C180.575,57.12,168.8,45.58,151.485,49.358Zm21.661,21.275a55.406,55.406,0,0,0-4.756,2.892c-5.4,3.6-10.606,8.42-12.6,14.719a.437.437,0,0,1-.772.128A27.672,27.672,0,0,0,137.473,75.9c-.45-.064-.32-.64,0-.771a46.7,46.7,0,0,1,7.071-2.25c.577-.134,7.008-1.414,7.006-1.607-.033-2.957-.642-14.908.385-15.361,2.317-1.022,7.777-1.414,7.777-1.029,0,2.636-.449,15.49-.514,15.49a70.47,70.47,0,0,1,13.755-.514A.415.415,0,0,1,173.146,70.633Z" fill="#ecebe7"></path><path d="M99.423,135.679c4.65,2.282,14.25,1.991,19.925,1.928,7.327-.082,15.329-.245,22.175-3.15,1.033-.438,2.571-1.156,2.7-2.442.275-2.746-18.308-2.7-18.9-2.507,0,.579-.064,1.093-.064,1.671.888.3,1.383,2.113-1.992,2.571-1.091.148-3.463-.074-4.371-.771-.51-.391-.514-1.607.386-1.542v-1.8a77.349,77.349,0,0,0-19.8,2.892c-.706.195-1.869.579-1.8,1.479C97.747,134.779,98.778,135.362,99.423,135.679Z" fill="#fff"></path><path d="M145.186,131.886a4.5,4.5,0,0,1-1.992,2.829,12.553,12.553,0,0,1-2.7,1.157c-8.38,2.8-18.052,2.612-26.674,2.506-4.57-.056-10.1.067-14.462-1.928-1.227-.562-2.379-1.216-2.185-2.571a2.33,2.33,0,0,0-.964,1.864,1.922,1.922,0,0,0,1.285,1.543,34.379,34.379,0,0,0,10.413,2.313,126.721,126.721,0,0,0,23.653.193,71.549,71.549,0,0,0,11.7-1.992c3.95-1.194,4.319-3.53,2.571-5.335C145.576,132.2,145.379,132.079,145.186,131.886Z" fill="#fff"></path><path d="M69.214,163.574a8.738,8.738,0,0,0,3.085.9c9.571,1.764,19.539,1.317,29.309,1.35,9.526.031,5.221.228,23.653.128,1.414-.008,2.893-.064,4.307-.064a.193.193,0,0,0,0-.386c-46.815-.789-48.264-.588-55.341-1.671-1.9-.29-5.34-.519-5.078-2.25.244-1.609,1.732-3.152,2.636-4.435,2.5-3.542,5.159-7.295,9-9.448a14.374,14.374,0,0,1,7.456-1.478c2.764.066,5.527.212,8.291.321,9.832.389,32.652.836,34.259.836,2.828,0,5.657-.105,8.548-.193,1.672-.051,4.969.26,4.564,2.7-.246,1.481-1.358,2.888-2.121,4.114a67.281,67.281,0,0,1-8.356,10.477c-.535.713.055,1.286.771.578a61.2,61.2,0,0,0,7.328-8.741c1.418-2.054,5.205-6.62,2.571-9-1.993-1.8-5.142-1.288-7.585-1.221-11.634.322-36.695-.67-44.157-.835.842-3.787-1.242-7.306-5.849-8.42-4.787-1.158-10.374.613-10.091-2.507a3.124,3.124,0,0,1,1.029-1.864c2.021-1.952,4.389-3.278,8.613-3.921,4.332-.659,18.28-1.414,24.81-1.414,3.684,0,5.1-.128,6.041-.128.258,0,.258-.45,0-.45a99.026,99.026,0,0,0-16.39-.193c-.711.035-11.326.623-13.433.9-3.858.506-7.909,1.6-10.6,4.563-1.644,1.805-1.459,3.87.064,4.885,1.607,1.072,3.813.39,7.584.771,4.054.41,8.227,3.021,7.135,7.649-6.61-.165-9.226-.428-14.012,3.792a40.361,40.361,0,0,0-7.392,9.127C68.9,159.526,66.916,162.134,69.214,163.574Z" fill="#fff"></path><path d="M129.311,154c-1.672-.064-8.549-.386-10.284-.45-.9,1.157-2.764,3.728-2.829,3.792,2.057.065,8.806.322,10.156.386C126.868,157.018,128.861,154.511,129.311,154Z" fill="#ecebe7"></path><path d="M112.663,153.354c-1.349-.064-2.763-.064-4.113-.128-.579.835-2.314,3.406-2.7,3.856,1.35.064,2.635.064,3.985.129C110.671,155.99,112.6,153.483,112.663,153.354Z" fill="#ecebe7"></path><path d="M102.572,153.033c-.128,0-3.342-.129-4.756-.193-1.029,1.286-2.121,2.571-3.15,3.857l5.078.192C99.937,156.5,102.122,153.547,102.572,153.033Z" fill="#ecebe7"></path><path d="M113.563,153.419c-.964,1.285-1.928,2.571-2.828,3.856.129,0,3.278.129,4.692.129.964-1.286,1.864-2.571,2.828-3.793C116.648,153.483,115.106,153.419,113.563,153.419Z" fill="#ecebe7"></path><path d="M100.515,156.889c1.543.065,3.086.129,4.692.129.322-.643,2.122-3.15,2.636-3.857-1.479-.064-2.957-.128-4.435-.128C103.279,153.1,100.644,156.7,100.515,156.889Z" fill="#ecebe7"></path><path d="M96.852,152.84l-4.628-.193c-1.093,1.286-2.25,2.571-3.342,3.857.064,0,3.342.128,4.82.193C94.538,155.668,96.659,153.1,96.852,152.84Z" fill="#ecebe7"></path><path d="M135.609,154.254c-1.735,0-5.334-.193-5.4-.193-.514.643-2.506,3.15-2.956,3.728.128,0,3.535.129,5.077.322C132.46,157.918,135.481,154.447,135.609,154.254Z" fill="#ecebe7"></path><path d="M126.547,158.689c-.193.257-.448.58-.643.836-1.4,1.828-1.665,2.419-1.993,2.828,3.689,0,3.446.732,7.713-3.535C129.788,158.818,127.947,158.689,126.547,158.689Z" fill="#ecebe7"></path><path d="M120.248,158.432c-1.543-.064-3.15-.129-4.692-.129-.386.579-.824,1.165-1.222,1.736a22.825,22.825,0,0,1-1.606,2.185h4.885c.064-.128.128-.193.192-.321C118.167,161.059,120.09,158.748,120.248,158.432Z" fill="#ecebe7"></path><path d="M87.339,151.812c1.543,0,3.15.064,4.692.128.322-.385,2.057-2.442,2.635-3.085a37.012,37.012,0,0,0-4.627,0C89.91,148.984,87.468,151.619,87.339,151.812Z" fill="#ecebe7"></path><path d="M123.976,160.939c.53-.659,1.133-1.712,1.671-2.25-1.543-.064-3.15-.128-4.692-.128a45.648,45.648,0,0,0-2.7,3.792h4.757A9.643,9.643,0,0,1,123.976,160.939Z" fill="#ecebe7"></path><path d="M88.11,156.439c.707-.835,2.957-3.406,3.343-3.856-3.021-.129-6.042-.321-9.127-.514a29.611,29.611,0,0,0-3.985,4.049C81.619,156.118,84.832,156.311,88.11,156.439Z" fill="#ecebe7"></path><path d="M109.128,158.111c-3.535-.129-13.626-.515-15.169-.579-.771.964-3.149,4.049-3.6,4.564.129,0,15.747.128,15.876.128C106.429,161.9,108.743,158.625,109.128,158.111Z" fill="#ecebe7"></path><path d="M86.5,151.747c.065-.128,2.379-2.571,2.7-2.892-.193,0-.386.064-.643.064a12.735,12.735,0,0,0-5.72,2.7l-.064.064C84,151.747,85.282,151.747,86.5,151.747Z" fill="#ecebe7"></path><path d="M92.8,151.876c1.543.064,3.086.064,4.628.128.9-1.092,1.8-2.121,2.828-3.149-1.478-.064-4.692-.129-4.82-.129A35.409,35.409,0,0,1,92.8,151.876Z" fill="#ecebe7"></path><path d="M93.06,157.468l-4.821-.193c-.771.9-3.15,3.985-3.6,4.628q2.409.192,4.82.193C89.653,161.71,92.545,158.175,93.06,157.468Z" fill="#ecebe7"></path><path d="M114.72,158.3c-1.542-.064-3.085-.128-4.692-.128-.578.835-1.205,1.682-1.8,2.507-.375.521-.707,1.092-1.092,1.606h4.82A28.966,28.966,0,0,1,114.72,158.3Z" fill="#ecebe7"></path><path d="M98.459,152.069c1.606.064,3.213.064,4.82.128.322-.385,2.057-2.506,2.7-3.149-1.671-.064-3.343-.064-5.014-.129C100.258,149.883,98.587,151.94,98.459,152.069Z" fill="#ecebe7"></path><path d="M87.468,157.211c-1.607-.065-3.214-.129-4.821-.257-.257.385-3.407,4.178-3.535,4.306.257,0,4.692.514,4.949.514A52.527,52.527,0,0,1,87.468,157.211Z" fill="#ecebe7"></path><path d="M81.94,156.889a38.452,38.452,0,0,1-3.921-.385c-1.028,1.157-2.813,3-1.092,4.113a4.78,4.78,0,0,0,1.414.515C78.533,160.874,81.747,157.146,81.94,156.889Z" fill="#ecebe7"></path><path d="M125.325,152.969s3.214.128,4.693.192c.321-.385,2.378-2.956,3.149-3.856-1.093-.064-4.371.064-4.885.064C128.089,149.562,125.454,152.776,125.325,152.969Z" fill="#ecebe7"></path><path d="M104.051,152.2c1.478.065,2.892.065,4.37.129.514-.707,1.993-2.828,2.25-3.214-1.35,0-2.764-.064-4.114-.064A38.234,38.234,0,0,1,104.051,152.2Z" fill="#ecebe7"></path><path d="M130.853,153.226c.064,0,3.6.193,5.271.321a4.2,4.2,0,0,0,.578-1.157,2,2,0,0,0-.45-2.121,4.924,4.924,0,0,0-2.635-.964A29.468,29.468,0,0,1,130.853,153.226Z" fill="#ecebe7"></path><path d="M119.669,152.776c1.607.064,3.278.128,4.885.193.193-.386,2.893-3.471,2.957-3.536h-5.206C121.726,150.076,119.991,152.326,119.669,152.776Z" fill="#ecebe7"></path><path d="M109.128,152.39c1.414.064,2.764.064,4.178.129q1.254-1.64,2.507-3.278c-1.479,0-2.957-.065-4.435-.065C111.056,149.691,109.514,151.812,109.128,152.39Z" fill="#ecebe7"></path><path d="M114.206,152.519c.064,0,3.214.128,4.692.193.514-.708,2.314-2.957,2.635-3.343-1.671,0-3.342-.064-5.013-.064C116.006,150.076,114.463,152.2,114.206,152.519Z" fill="#ecebe7"></path><path d="M65.293,131.886c-.129-.064-.258.13-.193.193a9.953,9.953,0,0,1,3.149,7.328c-3.491,2.095-5.182,3.651-10.476,7.97a8.6,8.6,0,0,1-6.171-4.564c-3.075-6.111,2.074-14.164,10.863-12.791.193-.128-.065-.321-.193-.385-4.725-1.8-11.463,1.435-12.4,7.841a2.576,2.576,0,0,0-4.371.579,7.968,7.968,0,0,0-3.792-6.235c-.129-.064-.258.129-.193.193C44,134.474,45.38,138,44.275,141.4a9.145,9.145,0,0,1-12.855,4.949C23.8,142,26.544,128.625,38.812,129.894a.138.138,0,0,0,.064-.257c-4.59-2.176-11.9,1.439-12.662,8.1-1.6.229-8.032,2.56-12.984,5.078-2.049,1.043-4.29,2.009-5.913,3.664-3.793,3.868-2.542,9.323,1.157,10.412a.425.425,0,0,0,.321-.771A5.109,5.109,0,0,1,6.031,152c-.254-3.406,2.373-5.279,4.885-6.813a65.652,65.652,0,0,1,11.7-5.334c.386-.129,3.6-1.029,3.6-1.286-.413,7.434,7.3,12.579,14.719,8.42a9.345,9.345,0,0,0,3.278-3.149c.95-1.552.839-3.276,1.607-4.885.581-1.22,2.568-2.248,3.6-.836.7.966.491,2.384.771,3.471a9.37,9.37,0,0,0,6.749,6.556,45.041,45.041,0,0,0-4.306,5.592c-1.3,2.5-1.81,6.765,1.092,8.42a8.147,8.147,0,0,0,3.535.9.435.435,0,0,0,.386-.579c-.128-.321-1.091-.392-1.35-.45-1.864-.419-3.029-1.044-3.535-2.892a7.3,7.3,0,0,1,1.286-5.913c2.571-3.857,4.049-4.821,4.113-4.885,5.439.132,8.892-2.326,10.349-5.528C70.128,139.248,69.085,134.136,65.293,131.886Zm-.322,13.755a10.365,10.365,0,0,1-5.849,1.993c1.222-1.029,2.587-2.037,3.857-3.021.976-.756,1.981-1.622,2.957-2.378.762-.591,1.542-1.157,2.313-1.864A9.034,9.034,0,0,1,64.971,145.641Z" fill="#fff"></path><path d="M187.351,134.329c-5.846-5.567-15.583-3.884-25.325-4.821a33.488,33.488,0,0,1-5.013-.707c-1.35-.321-2.532-.893-2.892-2.314-.553-2.175,1.116-3.953,2.7-5.206a17.163,17.163,0,0,0,3.15-2.764,3.4,3.4,0,0,0,.835,0c.627-.171,1-1.938,1.164-2.739a80.642,80.642,0,0,1,13.877,1.518c3.213.771,6.684,1.286,9.7,2.764a.353.353,0,0,0,.45-.193c1.71-11.331,8.727-74.63,9-75.716.065.065-5.077-.385-6.041-.514-8.422-7.091-20.776-11.98-32.909-9.7a62.051,62.051,0,0,0-14.4,4.756A96.754,96.754,0,0,0,126.8,47.237v-.065c-6.368-8.915-19.026-16.314-33.23-15.426-10.389.675-19.009,4.575-28.024,9.834-.572.334-1.086.72-1.671,1.029-.127.067,0,.321.128.193,17.31-9.674,34.2-14.973,51.227-4.757a43.483,43.483,0,0,1,6.428,4.885c.9.836,4.242,5.206,5.078,4.628,18.388-10.978,33.517-18.406,52.448-9.256,3.985,1.929,11.7,8.1,12.083,8.485,0,0-7.134,58.683-7.2,59,.064-.45-2.764-1.864-3.15-2.057-5.784-3.062-13.073-3.989-19.668-3.792a57.013,57.013,0,0,0-25.067,6.556,43.058,43.058,0,0,0-13.048,9.32c.552-9.943.489-13.215,1.029-25.9.321-8.613,2.121-38.112,2.185-40.622.006-.257-.321-.257-.386,0-1.876,15.945-3.742,56.894-3.471,66.2-5.592-6.556-14.012-10.219-22.239-12.212-16.449-3.938-32.715-.677-40.686,4.371,1.245-7.475,5.163-53.372,4.564-63.247,0-.257-.321-.192-.321,0-.094.9-.981,18.145-1.415,23.525-.642,8.42-3.406,39.4-3.47,40.043,0,.257.385.322.514.129a54.635,54.635,0,0,1,25-5.913c13.3-.146,27.463,3.489,37.022,13.047l1.093,1.093c.192.193.642.064.642-.193,3.173-2.719,5.12-4.907,11.634-8.356a56.97,56.97,0,0,1,24.746-7.2c8.356-.515,16.326.9,23.589,5.206a5.38,5.38,0,0,1,.771.514c-.128,1.286-.321,2.507-.45,3.792-.321-.193-.638-.393-.964-.578a40.726,40.726,0,0,0-8.42-3.021c-16.827-4.207-36.773.439-49.813,10.22-.707.064-2.314.128-2.378.128-2.33-2.446-6.752-4.8-9.9-6.106-11.887-5.177-26.9-6.126-38.244-3.856-3.856.771-12.019,3.985-12.019,3.92v-2.956a.162.162,0,0,0-.322,0c0,.321-.574,3.935.065,3.728,3.692-1.2,7.2-2.764,10.991-3.6,16.646-3.534,34.536-.58,48.591,8.935-.964.321-1.941-.3-2.828-.836a43.51,43.51,0,0,0-12.855-5.4c-8.716-1.95-22.1-3.081-32.523-.9-4.839,1.075-10.316,3.053-10.669,3.407a.352.352,0,0,0-.193.321c-.064,1.028-.129,1.992-.193,3.021a.342.342,0,0,0,.45.321c17.33-5.143,37.381-4.094,54.826,1.093-.064.643.065,2.185.257,2.185,2.443-.128,10.349-.385,10.8-.578.642-.193.578-1.029.514-1.671.064,0,9.32-1.543,12.919-1.929.832-.078,2.143-.155,3.788-.216-.347.974-.869,2.794-.06,2.852h.386a9.372,9.372,0,0,1-2.25,3.149c-3.535,3.664-9.256,4.049-14.14,3.921a1.74,1.74,0,0,0-.965.193.42.42,0,0,0,0,.707,2.76,2.76,0,0,0,1.607.257c6.71,0,14.521-1.783,16.647-8.163a1.74,1.74,0,0,0,.965-.193,7.259,7.259,0,0,0,.523-2.8c3.369-.073,7.526-.08,11.72.049-.317.737-1.215,2.52-.481,2.69-3.039,2.808-5.139,3.748-5.785,6.17a4.08,4.08,0,0,0,.45,3.342,5.113,5.113,0,0,0,3.471,1.8c9.7,1.9,20.222.179,26.61,3.728,6.013,3.28,6.03,9.469.45,10.027-2.764.257-5.207-1.028-7.778-1.8-3.427-.952-6.351.284-7.584,2.443a3.6,3.6,0,0,0-.514-.322,10.157,10.157,0,0,0-5.528-1.992c-7.994-.761-17.907,7.9-15.233,14.847,1.093,2.764,4.114,3.728,6.877,3.792,5.2,0,10.575-1.965,14.012-5.784,2.947-3.274,4.4-7.238,1.029-10.091a6.627,6.627,0,0,1,5.784-1.864,32.475,32.475,0,0,1,3.857,1.285c5.993,2.1,9.608-.178,10.284-3.085A7.054,7.054,0,0,0,187.351,134.329ZM151.1,109.454a83.59,83.59,0,0,0-24.553,7.328c-.514,0-1.029.064-1.479.064a57.293,57.293,0,0,1,10.413-5.4c13.937-6.069,32.086-7.587,46.278-.964.514.257,1.028.578,1.542.835a8.329,8.329,0,0,1-.321,2.057C172.953,108.94,161.9,107.976,151.1,109.454Zm14.14,33.359c-1.68-.373-5.2.359-7.841,2.443-.293-.128-.8-.419-3.214.064C154.614,145.32,159.4,141.354,165.24,142.813Zm3.728,10.349A17.738,17.738,0,0,1,156.82,159.4c-2.442.257-5.4.193-7.2-1.8-1.671-1.864-1.221-4.82-.257-6.877a12.759,12.759,0,0,1,3.407-4.242,9.767,9.767,0,0,1,10.862,4.049c.125.195.707.964.707.322,0-2.122-2.017-3.74-3.92-4.693-.322-.192-1.864-.964-2.122-.771C166.881,140.3,174.56,146.346,168.968,153.162Z" fill="#fff"></path><path d="M145.186,153.033c-1.8,2.571-3.676,5.2-5.527,7.777-1.424,1.985-3.284,5.439-5.849,6.106a31.337,31.337,0,0,1-7.52.514c-4.693.033-9.385-.053-14.077-.128-18.594-.3-32.342-.092-43.192-2.185-.257-.065-.579,0-.514.257a42.76,42.76,0,0,0,9.834,1.735c9.35.757,19.7.872,32.78.964,7.536.053,21.367.885,23.974-.771,2-1.271,3.352-3.464,4.757-5.335,2.731-3.638,5.251-7.537,5.849-8.613C145.958,152.969,145.444,152.712,145.186,153.033Z" fill="#fff"></path><path d="M78.791,48.458a34.121,34.121,0,0,1,23.138-.707,35.618,35.618,0,0,1,4.5,1.992,3.486,3.486,0,0,0,1.542.579c.257,0,.386-.257.322-.514a2.842,2.842,0,0,0-1.157-.965c-8.756-5-20.479-5.1-28.41-.642C78.469,48.265,78.533,48.522,78.791,48.458Z" fill="#ecebe7"></path><path d="M115.749,95.25a15.716,15.716,0,0,0-3.857-2.828c-11.4-6.365-24.785-8.477-37.087-4.692a24.05,24.05,0,0,0-4.884,2.056c-.191.133-.065.386.128.322a71.705,71.705,0,0,1,8.87-2.507,47.988,47.988,0,0,1,27.188,3.214,56.4,56.4,0,0,1,6.942,3.664c.771.449,1.545.83,2.314,1.285A.325.325,0,0,0,115.749,95.25Z" fill="#ecebe7"></path><path d="M113.82,100.649C102.382,93.786,84.949,90.77,72.3,95.635a11.075,11.075,0,0,0-2.378,1.157c-.191.133-.065.386.128.322,2.288-.572,7.612-3.324,17.869-2.893a58.246,58.246,0,0,1,22.753,6.042c.778.373,1.478.772,2.249,1.157s1.607.707,2.379,1.093a.3.3,0,0,0,.321-.514C115.042,101.549,114.463,101.1,113.82,100.649Z" fill="#ecebe7"></path><path d="M73.327,67.483A21.487,21.487,0,0,0,69.985,68.9a.174.174,0,0,0,.128.322c4.807-.849,24.225-10.373,41.265,2.828,2.2,1.706,2.919,2.1,4.049,2.892.322.193.579-.257.386-.514a19.823,19.823,0,0,0-3.407-3.15c-1.163-.827-2.371-1.682-3.6-2.442C98.086,62.2,85.315,63.239,73.327,67.483Z" fill="#ecebe7"></path><path d="M70.049,76.224c5.021-.941,23.322-9,41.329,3.15a38.1,38.1,0,0,0,4.049,2.571.325.325,0,0,0,.386-.514,17.6,17.6,0,0,0-1.607-1.479,51.177,51.177,0,0,0-5.4-3.47c-8.293-4.632-17.092-5.623-26.289-4.178-3.389.532-10.124,2.192-12.469,3.6C69.728,75.967,69.856,76.224,70.049,76.224Z" fill="#ecebe7"></path><path d="M115.749,87.6a14.831,14.831,0,0,0-3.728-2.7c-11.639-6.5-25.574-8.082-37.216-4.5a20.877,20.877,0,0,0-4.82,1.993.173.173,0,0,0,.128.321c2.41-.6,17.247-7.111,36.187.772a62.459,62.459,0,0,1,6.878,3.535,24.917,24.917,0,0,1,2.249,1.221C115.684,88.244,116.006,87.858,115.749,87.6Z" fill="#ecebe7"></path><path d="M120.248,132.144a4.629,4.629,0,0,0,4.113,0c.129-.065.257-5.142.386-6.621s.45-2.956.45-4.435c0-.578-1.221-.193-1.478-.193a33.534,33.534,0,0,1-3.6.065C120.419,120.96,120.082,131.978,120.248,132.144Z" fill="#fff"></path><path d="M171.153,85.094a60.882,60.882,0,0,1-.835-6.877.226.226,0,1,0-.45,0,26.9,26.9,0,0,0,.45,7.135c.064.578.128,1.414.643,1.735.064.064.128,0,.192-.064C171.539,86.508,171.218,85.673,171.153,85.094Z" fill="#fff"></path><path d="M173.4,82.973c-.124-.371-.917-1.107-1.157-.707-.193.257.386.643.643,1.414.064.193.064.772.321.836.386.128.45-.45.45-.707A3.162,3.162,0,0,0,173.4,82.973Z" fill="#fff"></path><path d="M175.331,83.809a2.808,2.808,0,0,0-.257-.45c-.128-.193-.514-.643-.771-.386-.193.193.257.643.45,1.35.064.193,0,.707.193.771C175.233,85.267,175.67,84.824,175.331,83.809Z" fill="#fff"></path><path d="M176.745,88.565a3.574,3.574,0,0,0,.772-2.121,4.575,4.575,0,0,0-.707-2.571.138.138,0,0,0-.257.064c-.065.9.259,1.8.192,2.7a4.611,4.611,0,0,1-1.157,2.121c-.842,1.217-1.472,3.147-.9,4.564.129.32.578.128.578-.193C175.418,91.618,174.931,91.171,176.745,88.565Z" fill="#fff"></path><path d="M168.133,86.894c0-.835.209-2.136-.45-2.828a.159.159,0,0,0-.258.064,21.4,21.4,0,0,0-.128,2.828c0,3.612,3.391,4.12,3.985,6.3a2.424,2.424,0,0,0,.193.643.364.364,0,0,0,.643,0c.519-.7-.262-1.732-.707-2.25C170.189,90.231,168.133,89.48,168.133,86.894Z" fill="#fff"></path></g></svg>