<svg viewBox="0 0 1000 1000" xmlns="http://www.w3.org/2000/svg"><g transform="matrix(5,0,0,5,0,0)"><path d="M24.634,82.534c.761,2.692,7.4,53.455,9.012,59.775,4.1-1.141,8.192-2.282,12.288-3.453-.117-3.072-5.618-51.523-8.017-58.457C36.162,80.808,27.063,82.3,24.634,82.534Z" fill="#c7423f"></path><path d="M46.9,88.415a56.381,56.381,0,0,1,9.977-1.638c1.228,3.774,5.383,40.844,6.378,46.667-3.657,1.082-7.315,2.194-10.972,3.277C52.02,134.555,48.041,94.647,46.9,88.415Z" fill="#c7423f"></path><path d="M65.742,94.852c1.4-.175,8.134-1,10.035-1.2.293,2.428,3.57,32.271,4.477,36.016l-10.709,2.282C68.609,130.079,66.239,100.031,65.742,94.852Z" fill="#c7423f"></path><path d="M84.087,105.239l8.953-.644.877,21.066L86.281,127.5C85.754,125.017,84.057,109.54,84.087,105.239Z" fill="#c7423f"></path><path d="M56.028,19.629V39.935c0-.352,7.051-3.424,7.11-3.541.088-.175-.529-.406-.7-.526-1.422-.987-.874-2.59.7-2.517a12.739,12.739,0,0,1,2.838,1.317c.438.235.557.179,1.024,0,.822-.315,4.681-2.048,5.764-2.575A18.46,18.46,0,0,0,56.028,19.629Z" fill="#c7423f"></path><path d="M51.99,27.617l1.639,17.906c1.814-.819,10.182-4.126,10.27-4.1s.146.351.029.38a.7.7,0,0,0-.527.5,2.652,2.652,0,0,0,.029.878c0,.059-.614.849-.614,1.288a2.682,2.682,0,0,0,.351,1.258,4.864,4.864,0,0,0,1.873,1.7,22.657,22.657,0,0,0,2.867,1.2,7.414,7.414,0,0,0,3.686.264A14.532,14.532,0,0,1,67.38,59.479C61.719,65.17,51.7,65.891,44.793,60.913c-6.323-4.561-8.342-12.67-6.671-19.428A19.247,19.247,0,0,1,51.99,27.617Z" fill="#c7423f"></path><path d="M102.022,133.648c-10.5,2.4-77.008,20.276-79.729,21.183-.438-2.721-7.434-64.8-11.557-75.515a.32.32,0,0,0-.614.176c2.17,10.151,10.139,73.091,11.177,76.246.138.422.412.381.673.381,2.662-.5,73.591-19.508,80.167-21.856C102.575,134.107,102.4,133.562,102.022,133.648Z" fill="#333333"></path><path d="M23.083,166.359c10.28-2.484,75.57-21.546,78.354-22.529a.561.561,0,0,0-.293-1.082c-2.54.5-72.589,20.978-78.207,23A.316.316,0,1,0,23.083,166.359Z" fill="#333333"></path><path d="M27.677,172.416c5.345-.881,60.881-15.461,63.432-16.473a.561.561,0,0,0-.293-1.082c-2.686.528-58.13,15.438-63.315,16.94A.32.32,0,0,0,27.677,172.416Z" fill="#333333"></path><path d="M11.409,53.657a.621.621,0,0,0-1.024-.264,8.97,8.97,0,0,1-4.8,1.814c-.293.025-.615.264-.585.586a46.678,46.678,0,0,0,1.96,9.947.544.544,0,0,0,.615.351,22.057,22.057,0,0,0,4.973-1.2.32.32,0,0,0-.175-.615c-1.521.211-3.043.556-4.564.79a49.405,49.405,0,0,1-1.58-8.748,9.875,9.875,0,0,0,4.3-1.521c.38,1.112,1.647,6.434,2.106,7.929.179.584,1.139.5,1.112-.147C13.623,59.567,12.453,56.411,11.409,53.657Z" fill="#333333"></path><path d="M17.32,32.269a.566.566,0,0,0-.7-.38c-1.748.305-3.511.555-5.237.965a.575.575,0,0,0-.409.7c2.06,9.906,3.922,19.808,5.354,29.814a.633.633,0,0,0,.907.381,10.959,10.959,0,0,1,4.1-1.2c.643-.089.468-1.083-.146-1.112a8.424,8.424,0,0,0-3.775.82Q15.3,47.951,12.2,33.82c1.346-.293,2.721-.556,4.1-.79,1.726,8.631,3.123,17.382,5.412,25.864.111.411.674.234.615-.176C21.031,49.849,18.97,41.084,17.32,32.269Z" fill="#333333"></path><path d="M32.183,58.894c-1.039-7.606-2.518-15.138-4.067-22.646a.58.58,0,0,0-.849-.351,20.63,20.63,0,0,1-4.8,1.434.541.541,0,0,0-.38.673c1.441,6.522,2.187,13.108,3.277,19.69.058.351.643.264.614-.087A110.419,110.419,0,0,0,23.259,38.3a24.93,24.93,0,0,0,3.833-1.112q2.019,10.754,3.774,21.534a13.152,13.152,0,0,1-3.95,1.112c-.673.115-.439,1.062.147,1.112a8.3,8.3,0,0,0,4.8-1.346A.654.654,0,0,0,32.183,58.894Z" fill="#333333"></path><path d="M184.647,145.908c-1.726-.176-8.339.2-9.889.263a67.337,67.337,0,0,0-.147-9.1,1.193,1.193,0,0,0-.409-.556,7.349,7.349,0,0,0-7.929,2.545,10.529,10.529,0,0,0-1.726,8.046c1.16,6.761,9.066,10.468,15.126,7.373a9.522,9.522,0,0,0,5.267-8.309C184.94,146.112,184.676,145.908,184.647,145.908Zm-6.378,8.133a9.851,9.851,0,0,1-10.592-2.867c-3.35-3.968-2.364-10.367.966-12.669,1.522-1.052,3.1-.936,4.8-.848-.234,3.013.117,6.173.146,9.158a.592.592,0,0,0,.586.585c1.841-.142,8.572-.5,10.094-.761A9.471,9.471,0,0,1,178.269,154.041Z" fill="#333333"></path><path d="M183.389,111.939c-.059-.088-.351-.059-.38-.059-1.463.907-5.911,4.769-6.818,5.53a46.186,46.186,0,0,0,2.136-7.724c.036-.263-.322-.673-.38-.7a10.818,10.818,0,0,0-11.7,3.247c-4.431,5.8-.858,15.8,6.905,17.029a11.267,11.267,0,0,0,10.269-3.833A10.8,10.8,0,0,0,183.389,111.939Zm-.146,12.054a10.161,10.161,0,0,1-9.07,4.3c-6.613-.5-10.7-8.434-7.637-14.219a7.957,7.957,0,0,1,4.535-3.775,12.871,12.871,0,0,1,5.91-.292c-1.111,2.867-1.67,6.064-2.516,8.982a.606.606,0,0,0,1,.585c1.37-1.142,6.554-5.647,7.666-6.875C185.086,116.211,185.587,120.485,183.243,123.993Z" fill="#333333"></path><path d="M194.39,88.737a5.338,5.338,0,0,0-6.642-1.9c-1.053-1.609-29.082-37.509-31.862-40.7.088-.029,5.061-2.486,2.75-7.226-1.112-2.282-4.99-3.27-7.109-1.61-.148.116-3.716,2.312-2.487,6.232-1.522.615-7.49,3.833-9.012,4.623-.819-1.814-4.506-9.285-5.647-11.118a.321.321,0,0,0-.585.234c.532,2.025,4.482,9.914,5.442,11.967a.575.575,0,0,0,.79.2c1.668-.848,8.134-3.949,9.538-4.856a5.255,5.255,0,0,0,5.589,1.784c2.457,3.541,30.194,39.7,31.657,41.284a4.943,4.943,0,0,0-1.609,6.583c1.375,2.194,4.478,2.7,6.7,1.638C194.48,94.651,195.875,91.257,194.39,88.737ZM150.269,43.65c-.03-.117-1.229-3.6,1.4-5.354.088.029,3.307-1.844,5.618.79,1.668,1.9.444,4.927-1.668,5.91A4.288,4.288,0,0,1,150.269,43.65Zm41.078,51.2c-1.812.852-4.383.407-5.383-1.463-1.019-1.9.029-3.92,1.463-5.237.087.029,3.63-1.67,5.617.79C194.626,90.9,193.456,93.861,191.347,94.852Z" fill="#333333"></path><path d="M129.759,26.154a74.576,74.576,0,0,0-4.36-9.538,5.174,5.174,0,0,0,1.375-6.408c-1.3-2.189-4.99-3.269-7.109-1.609-.148.116-5.208,2.487-1.873,7.373C116.329,17,100.237,30.309,98.833,31.742a5.312,5.312,0,0,0-6.115-.5c-2.833,1.939-3.485,4.858-2.077,7.11,1.372,2.2,4.475,2.689,6.7,1.638,2.544-1.2,4.154-5.266,2.048-7.695,1.463-.965,17.818-13.985,19.281-15.419,1.58,1.17,4.74,1.4,6.056.293a77.049,77.049,0,0,0,4.038,9.479A.568.568,0,0,0,129.759,26.154Zm-33,12.815c-1.812.852-4.383.407-5.383-1.463-1.019-1.9.029-3.92,1.463-5.237.088.029,3.287-1.445,5.617.79C100.275,34.806,98.864,37.978,96.755,38.969ZM123.7,16.323c-1.465.668-4.257.724-5.383-1.463-.983-1.908.029-3.92,1.463-5.237.087.029,3.429-1.731,5.617.79C127.072,12.34,125.835,15.351,123.7,16.323Z" fill="#333333"></path><path d="M190.645,89.937a2.061,2.061,0,0,0-3.218,1.9c.218,1.319,1.692,2.509,2.925,1.609a3.153,3.153,0,0,0,1.229-1.756A2.029,2.029,0,0,0,190.645,89.937Z" fill="#333333"></path><path d="M155.155,39.818a2.061,2.061,0,0,0-3.219,1.9c.219,1.32,1.693,2.51,2.926,1.61a3.071,3.071,0,0,0,1.229-1.756A1.933,1.933,0,0,0,155.155,39.818Z" fill="#333333"></path><path d="M123.293,11.145a2.061,2.061,0,0,0-3.219,1.9c.219,1.32,1.693,2.51,2.926,1.61a3.157,3.157,0,0,0,1.229-1.756A2.031,2.031,0,0,0,123.293,11.145Z" fill="#333333"></path><path d="M96.317,34.317a2.062,2.062,0,0,0-3.219,1.9c.219,1.319,1.692,2.51,2.926,1.609a3.154,3.154,0,0,0,1.229-1.755A2.033,2.033,0,0,0,96.317,34.317Z" fill="#333333"></path><path d="M184.705,64.775c-1.8-1.771-9.75-8.153-11.732-9.6-.558-.407-1.021.436-.673.878,1.536,1.949,9.837,8.352,12.113,9.245C184.706,65.416,184.912,64.978,184.705,64.775Z" fill="#333333"></path><path d="M186.9,60.093c-1.8-1.77-9.751-8.152-11.733-9.6-.558-.407-1.02.436-.673.878,1.536,1.949,9.831,8.367,12.113,9.245C186.9,60.766,187.136,60.326,186.9,60.093Z" fill="#333333"></path><path d="M189.533,56.582c-1.8-1.77-9.751-8.152-11.732-9.6-.559-.407-1.021.436-.673.878,1.535,1.949,9.836,8.352,12.113,9.245C189.534,57.224,189.74,56.786,189.533,56.582Z" fill="#333333"></path><path d="M101.759,73.143c-3.57.029-17.323-2.483-26.274-22.793-.27-.611-1.2-.146-1.024.439,5.462,18.173,20.609,24.192,27.385,22.968C102.2,73.694,102.11,73.14,101.759,73.143Z" fill="#333333"></path><path d="M163.844,95.262a8.236,8.236,0,0,0-1.814-3.833c-.7-.648-5.527-.445-6.934-.293-.321.035-.467.55-.088.615,1.086.186,5.94.2,6.174.351.585.322,1.527,3.218,1.58,3.628.455,3.5-1.141,6.671-2.253,9.86a59.82,59.82,0,0,0-7.695,1.229c-.262.09-.351.558,0,.614a41.31,41.31,0,0,0,8.251-.731C161.9,106.486,164.651,98.418,163.844,95.262Z" fill="#333333"></path><path d="M167.677,191.316c-1.492-3.306-4.037-6.758-7.373-8.4a5.008,5.008,0,0,0,.468-1.9c-10.767-18.608-20.919-54.917-21.124-56.263.234,0,.439.025.644.029,3.513.073,15.976-1.2,16.53-4.213.7-3.832,1.43-7.758,1.99-11.615a.32.32,0,0,0-.614-.176c-1.151,3.2-2.254,11.468-2.78,11.879-.41.321-10.679,4.418-22.09,1.814,0-1.843.146-8.982.849-11.791.087-.351-.47-.381-.615-.088-1.065,2.159-1.287,8.368-1.346,9.509a3.356,3.356,0,0,0-3.511-1.375c.526-7.184.893-24.731,2.809-25.806.88-.494,3.309,5,1.873,14.863-.118.811,5.513,1.225,9.684-.322.642-.238.147-1.227-.439-1.024-3.889,1.353-7.2.878-8.485.966.878-3.365,1.463-11.44-.936-14.922.761-.117,4.6-.336,5.676-.614a.32.32,0,0,0,0-.615,23.861,23.861,0,0,0-7.11.2,1.473,1.473,0,0,0-.907.468c-1.587,1.544-2.311,7.373-2.34,7.637-3.745.614-10.621,1.784-18.287-.527-.38-1.726-4.245-16.384-4.739-19.6-.9-5.882-.171-8.394,1.521-13.342.12-.35-.405-.553-.585-.234-2.312,4.1-2.655,8.835-2.077,13.4.414,3.276,4.037,18.4,4.71,20.158-.409,4.945-.847,28.644-.731,32.565.3,10.094.454,15.124,1.375,21.183.893,5.878,4.593,26.391,4.915,30.253-.029,0-5.084,2.589-7.578,3.8-.729.355-4.739,1.551-3.277,3.014.644.643,13.461-.412,16.561-.644a.618.618,0,0,0,.614-.614c.015-1.317-.029-4.184-.088-4.243a.468.468,0,0,0,.176-.088c.556-9.86,3.1-46.842,3.774-55.18,4.418,16.647,27.356,52.225,29.024,54.829a3.834,3.834,0,0,0,.7.351.5.5,0,0,0-.029.352c.523,2.078,2.924,4.069,4.623,5.149a13.365,13.365,0,0,0,8.1,2.019A.563.563,0,0,0,167.677,191.316Zm-48.012-2.926c-4.448.293-14.6,1.112-14.717,1.025.154.115,9.889-5.166,9.889-5.472a5.292,5.292,0,0,0,4.915,1.2A29.892,29.892,0,0,0,119.665,188.39Zm36.221-3.364c1.346.2,3.336.146,4.126-1.58a24.194,24.194,0,0,1,6.319,7.578A13.3,13.3,0,0,1,155.886,185.026Z" fill="#333333"></path><path d="M130.666,72.236c-.291-.208-.7.084-.5.38,1.317,1.941,2.721,3.774,3.979,5.735-2.018,2.633-2.961,10.037-2.545,11.586.173.644,1.033.44,1.112-.147.1-.73.351-7.314,2.019-10.532,3.189,3.979,9.412,22.4,9.918,23.64.214.523,1.159.555,1.112-.146C145.678,101.491,138.346,77.7,130.666,72.236Z" fill="#333333"></path><path d="M76.567,42.831a106.416,106.416,0,0,0-13.4-8.631c-.524-.24-1.2.444-.673.878a115.374,115.374,0,0,0,13.342,8.1,6.11,6.11,0,0,1-2.75.995c-.674-.086-2.455-1.047-2.809-.907a.566.566,0,0,0-.41.527c.119,1.2,2.779,1.633,3.657,1.58,1.083-.066,3.043-.849,3.131-2.136A.533.533,0,0,0,76.567,42.831Z" fill="#333333"></path><path d="M68.96,42.012a6.989,6.989,0,0,0-2.428-2.194.572.572,0,0,0-.644.819,7.063,7.063,0,0,0,2.75,1.785A.322.322,0,0,0,68.96,42.012Z" fill="#333333"></path><path d="M68.024,43.914a6.912,6.912,0,0,0-2.428-2.2.572.572,0,0,0-.644.82,7.072,7.072,0,0,0,2.75,1.784A.312.312,0,0,0,68.024,43.914Z" fill="#333333"></path><path d="M72.764,46.313a8.51,8.51,0,0,1-1.9.585c-.556,0-3.774-1.7-5.3-2.575-.146-.146-.524-.464-.907-.2-.7.475.059,1.171.264,1.346a11.212,11.212,0,0,0,4.388,2.253c1.2.362,3.131.381,3.833-.907A.355.355,0,0,0,72.764,46.313Z" fill="#333333"></path><path d="M122.971,35.165c-.113-.323-.412-.824-.849-.672-.734.254-.961,1.485-.351,1.843A.9.9,0,0,0,122.971,35.165Z" fill="#333333"></path><path d="M144.885,106.877c-.556,1.551-3,3.787-3.54,4.477a.56.56,0,0,0,.673.877c.907-.409,3.815-4.236,3.452-5.266A.32.32,0,0,0,144.885,106.877Z" fill="#333333"></path><path d="M144.593,111.588a36.273,36.273,0,0,0-2.838,4.564c-.207.468.257,1.134.76.761.724-.537,2.663-4.126,2.6-5.091A.306.306,0,0,0,144.593,111.588Z" fill="#333333"></path><path d="M146.465,112a52.834,52.834,0,0,0-2.575,5.033c-.239.583.555.876.937.556.7-.588,2.326-4.446,2.223-5.413A.319.319,0,0,0,146.465,112Z" fill="#333333"></path><path d="M148.279,111.763a16.113,16.113,0,0,0-1.521,3.745.571.571,0,0,0,.936.556,8.419,8.419,0,0,0,1.112-4.125C148.717,111.705,148.452,111.556,148.279,111.763Z" fill="#333333"></path><path d="M149.859,111.324a13.686,13.686,0,0,0-1.317,3.629c-.054.527.621.68.966.409.506-.4,1.2-3.394.848-3.979A.3.3,0,0,0,149.859,111.324Z" fill="#333333"></path><path d="M118.641,43.738c.817.733,3.874,1.5,4.915-.761.148-.321-.345-.725-.585-.468a3.536,3.536,0,0,1-3.892.644C118.733,42.969,118.347,43.475,118.641,43.738Z" fill="#333333"></path><path d="M119.167,36.073c-.263.7-1.194,3.3-1.024,3.832a1.22,1.22,0,0,0,2.019.322.341.341,0,0,0-.146-.556c-.206-.055-.617,0-.761-.088-.267-.169.176-2.428.468-3.452C119.84,35.809,119.284,35.809,119.167,36.073Z" fill="#333333"></path><path d="M121.8,33.439c.409.091,1.9.878,2.312.937a.483.483,0,0,0,.409-.7c-.468-.819-1.784-.921-2.633-.936A.361.361,0,0,0,121.8,33.439Z" fill="#333333"></path><path d="M152.7,87.655c-.788-8.225-4.059-15.688-8.777-22.412-2.98-4.246-6.964-8.631-12.494-9.012a21.221,21.221,0,0,1-1.872-5.12.523.523,0,0,0-.585-.38,12.826,12.826,0,0,1,.79-5.267,2.348,2.348,0,0,0,2.779-.907,7.79,7.79,0,0,1-.556-5.12c.556-1.989,1.852-2.573,2.136-4.359.391-2.456-1.673-6.244-6.349-7.7-1.025-.318-4.085-.856-5.764-3.453-.436-.674-1.284-1.823-2.048-2.048-2.39-.7-3.617,3.92-3.482,5.267a6.7,6.7,0,0,0,1.463,3.511c-1.814,3.335-2.258,10.739-1.814,12.9.578,2.81,2.517,4.71,5.062,4.827a9.7,9.7,0,0,1-1.785,4.038c0-.059-.091-1.148-.907-.7a16.62,16.62,0,0,1-3.979,1.521.619.619,0,0,0-.439.761,14.359,14.359,0,0,0,.615,1.55,112.761,112.761,0,0,0-10.738,4.126,13.733,13.733,0,0,1-11.03.5C89.65,58.853,80.469,50.517,78.147,44.85a.454.454,0,0,0-.79,0,4.725,4.725,0,0,1-2.633,2.458.32.32,0,0,0,.176.614,4.771,4.771,0,0,0,2.838-1.931c3.481,7.11,11.408,13.875,14.687,15.244a14.7,14.7,0,0,0,10.972.029c1.876-.752,11.616-4.886,11.645-5,.2.409.408.82.643,1.228a.626.626,0,0,0,.966.118c.728-.648,1.7-1.346,2.428-2.136a31.785,31.785,0,0,0-.2,3.862c-3.98,10.884-2,23.7-.147,27.971.141.324.73.322.673-.088a60.646,60.646,0,0,1,.088-27.649,15.945,15.945,0,0,0,1.814-3.219c.38,1.171.9,2.3,1.287,3.394a.627.627,0,0,0,.586.468,13.35,13.35,0,0,0,8.075-2.9,19.8,19.8,0,0,1,11.03,7.636,73.823,73.823,0,0,1,6.612,11.616c4.773,9.917,2.042,25.395,1.668,27.327-.447,2.31-4.013,1.622-5.3,1.17-.323-.114-.582.432-.234.585.827.364,4.274,1.2,5.735.293C151.474,105.5,153.557,96.63,152.7,87.655ZM116.329,56.29a21.183,21.183,0,0,1-.878-2.019,16.311,16.311,0,0,0,2.868-1.141c.058.527.76.995.79,1.024A16.739,16.739,0,0,0,116.329,56.29Zm4.447-1.814c-.058.058-.526,1.317-.76,1.872a9.02,9.02,0,0,0-.2-1.989c.029-.029.2-.439-.176-.439a.5.5,0,0,0,.03-.556,7.907,7.907,0,0,0,2.75-5.091,6.012,6.012,0,0,0,1.112-.292c.32-.12.293-.639-.088-.615-1.754.111-6.016.233-6.408-5.237a20.416,20.416,0,0,1,.527-5.91c.445-1.988,1.463-5.676,2.341-6.525a7.788,7.788,0,0,1,8.133,6.759,2.136,2.136,0,0,1,2.166,1.375,2.246,2.246,0,0,1-2.019,2.633c.087.673.526,3.131.643,3.57-1.024,1.726-1.111,5.91-.79,7.08-2.106,1.083-4.33,1.9-6.436,2.955C121.332,53.861,120.864,54.125,120.776,54.476Zm2.751,4.535c-.527-1.4-.937-2.9-1.551-4.272a35.252,35.252,0,0,0,6.642-2.721,21.328,21.328,0,0,0,1.667,4.564A12.474,12.474,0,0,1,123.527,59.011Z" fill="#333333"></path></g></svg>