<svg fill="none" height="537" viewBox="0 0 766 537" width="766" xmlns="http://www.w3.org/2000/svg" xmlns:xlink="http://www.w3.org/1999/xlink"><clipPath id="a"><path d="m0 0h765.839v536.777h-765.839z"/></clipPath><g clip-path="url(#a)"><path d="m758.667 349.55h-530.494c-1.902-.002-3.725-.758-5.069-2.102-1.345-1.345-2.101-3.168-2.103-5.07v-328.5697h544.838v328.5697c-.002 1.902-.758 3.725-2.103 5.07-1.344 1.344-3.167 2.1-5.069 2.102z" fill="#e6e6e6"/><path d="m743.112 329.017h-499.384c-1.922-.002-3.765-.766-5.124-2.126-1.359-1.359-2.124-3.202-2.126-5.124v-270.5891c.002-1.9221.767-3.7649 2.126-5.1241 1.359-1.3591 3.202-2.1237 5.124-2.1259h499.384c1.922.0021 3.765.7666 5.124 2.1258s2.124 3.202 2.126 5.1242v270.5891c-.002 1.922-.767 3.765-2.126 5.125-1.359 1.359-3.202 2.123-5.124 2.125z" fill="#fff"/><path d="m765.607 23.9545h-544.838v-16.7825c.002-1.90149.758-3.72448 2.103-5.06903 1.344-1.344556 3.167-2.10085253 5.069-2.10297h530.494c1.901.00211747 3.724.758414 5.069 2.10297 1.345 1.34455 2.101 3.16754 2.103 5.06903z" fill="#06d6a0"/><g fill="#fff"><path d="m238.365 16.5207c2.365 0 4.283-1.9178 4.283-4.2834 0-2.36569-1.918-4.28344-4.283-4.28344-2.366 0-4.284 1.91775-4.284 4.28344 0 2.3656 1.918 4.2834 4.284 4.2834z"/><path d="m254.624 16.5207c2.365 0 4.283-1.9178 4.283-4.2834 0-2.36569-1.918-4.28344-4.283-4.28344-2.366 0-4.284 1.91775-4.284 4.28344 0 2.3656 1.918 4.2834 4.284 4.2834z"/><path d="m270.882 16.5207c2.366 0 4.284-1.9178 4.284-4.2834 0-2.36569-1.918-4.28344-4.284-4.28344-2.365 0-4.283 1.91775-4.283 4.28344 0 2.3656 1.918 4.2834 4.283 4.2834z"/></g><path d="m339.273 92.449h-51.47v22.782h51.47z" fill="#e6e6e6"/><path d="m442.212 139.7h-51.47v22.781h51.47z" fill="#e6e6e6"/><path d="m339.273 210.576h-51.47v22.781h51.47z" fill="#06d6a0"/><path d="m442.212 257.826h-51.47v22.782h51.47z" fill="#06d6a0"/><path d="m698.716 281.452h-51.47v22.781h51.47z" fill="#06d6a0"/><path d="m647.246 186.95h-51.47v22.782h51.47z" fill="#e6e6e6"/><path d="m545.151 186.95h-102.939v22.782h102.939z" fill="#06d6a0"/><path d="m545.151 67.9799h-102.939v22.7816h102.939z" fill="#06d6a0"/><path d="m236.334 43.5108v286.0352h514.695v-286.0353zm513.007 23.6958h-49.613v-22.0083h49.613zm-306.117 165.8694v-22.008h100.914v22.008zm100.914 1.687v22.009h-100.914v-22.009zm0-94.782v22.008h-100.914v-22.008zm-100.914-1.687v-22.009h100.914v22.009zm0 47.391v-22.009h100.914v22.009zm100.914 1.687v22.009h-100.914v-22.009zm-102.601-25.383h-49.613v-22.008h49.613zm0 1.687v22.009h-49.613v-22.009zm0 23.696v22.009h-49.613v-22.009zm0 23.696v22.008h-49.613v-22.008zm104.289 0h49.613v22.008h-49.613zm0-1.687v-22.009h49.613v22.009zm0-23.696v-22.009h49.613v22.009zm0-23.696v-22.008h49.613v22.008zm0-23.695v-22.009h49.613v22.009zm0-23.696v-22.0085h49.613v22.0085zm-1.688 0h-100.914v-22.0085h100.914zm-102.601 0h-49.613v-22.0085h49.613zm0 1.687v22.009h-49.613v-22.009zm-51.301 22.009h-49.614v-22.009h49.614zm0 1.687v22.008h-49.614v-22.008zm0 23.695v22.009h-49.614v-22.009zm0 23.696v22.009h-49.614v-22.009zm0 23.696v22.008h-49.614v-22.008zm0 23.695v22.009h-49.614v-22.009zm1.688 0h49.613v22.009h-49.613zm49.613 23.696v22.008h-49.613v-22.008zm1.687 0h100.914v22.008h-100.914zm102.602 0h49.613v22.008h-49.613zm0-1.687v-22.009h49.613v22.009zm51.3-22.009h49.614v22.009h-49.614zm0-1.687v-22.008h49.614v22.008zm0-23.695v-22.009h49.614v22.009zm0-23.696v-22.009h49.614v22.009zm0-23.696v-22.008h49.614v22.008zm0-23.695v-22.009h49.614v22.009zm0-23.696v-22.0085h49.614v22.0085zm0-23.6961v-22.0078h49.614v22.0078zm-1.687 0h-49.613v-22.0078h49.613zm-51.301 0h-100.914v-22.0078h100.914zm-102.601 0h-49.613v-22.0078h49.613zm-51.301 0h-49.614v-22.0078h49.614zm0 1.6876v22.0085h-49.614v-22.0085zm-51.301 22.0085h-49.613v-22.0085h49.613zm0 1.687v22.009h-49.613v-22.009zm0 23.696v22.008h-49.613v-22.008zm0 23.695v22.009h-49.613v-22.009zm0 23.696v22.009h-49.613v-22.009zm0 23.696v22.008h-49.613v-22.008zm0 23.695v22.009h-49.613v-22.009zm0 23.696v22.008h-49.613v-22.008zm1.687 0h49.614v22.008h-49.614zm49.614 23.696v22.008h-49.614v-22.008zm1.688 0h49.613v22.008h-49.613zm51.3 0h100.914v22.008h-100.914zm102.602 0h49.613v22.008h-49.613zm51.3 0h49.614v22.008h-49.614zm0-1.688v-22.008h49.614v22.008zm51.302-22.008h49.613v22.008h-49.613zm0-1.687v-22.009h49.613v22.009zm0-23.696v-22.008h49.613v22.008zm0-23.695v-22.009h49.613v22.009zm0-23.696v-22.009h49.613v22.009zm0-23.696v-22.008h49.613v22.008zm0-23.695v-22.009h49.613v22.009zm0-23.696v-22.0085h49.613v22.0085zm0-23.6961v-22.0078h49.613v22.0078zm0-23.6953v-22.0083h49.613v22.0083zm-1.688 0h-49.614v-22.0083h49.614zm-51.301 0h-49.613v-22.0083h49.613zm-51.301 0h-100.914v-22.0083h100.914zm-102.601 0h-49.613v-22.0083h49.613zm-51.301 0h-49.614v-22.0083h49.614zm-51.301 0h-49.613v-22.0083h49.613zm0 1.6875v22.0078h-49.613v-22.0078zm-51.301 22.0078h-49.613v-22.0078h49.613zm0 1.6876v22.0085h-49.613v-22.0085zm0 23.6955v22.009h-49.613v-22.009zm0 23.696v22.008h-49.613v-22.008zm0 23.695v22.009h-49.613v-22.009zm0 23.696v22.009h-49.613v-22.009zm0 23.696v22.008h-49.613v-22.008zm0 23.695v22.009h-49.613v-22.009zm0 23.696v22.008h-49.613v-22.008zm0 23.696v22.008h-49.613v-22.008zm1.688 0h49.613v22.008h-49.613zm49.613 23.696v22.008h-49.613v-22.008zm1.687 0h49.614v22.008h-49.614zm51.302 0h49.613v22.008h-49.613zm51.3 0h100.914v22.008h-100.914zm102.602 0h49.613v22.008h-49.613zm51.3 0h49.614v22.008h-49.614zm51.302 0h49.613v22.008h-49.613zm0-1.688v-22.008h49.613v22.008zm51.3-22.008h49.613v22.008h-49.613zm0-1.688v-22.008h49.613v22.008zm0-23.695v-22.009h49.613v22.009zm0-23.696v-22.008h49.613v22.008zm0-23.695v-22.009h49.613v22.009zm0-23.696v-22.009h49.613v22.009zm0-23.696v-22.008h49.613v22.008zm0-23.695v-22.009h49.613v22.009zm0-23.696v-22.0085h49.613v22.0085zm0-23.6961v-22.0078h49.613v22.0078zm-412.094-45.7036v22.0083h-49.613v-22.0083zm-49.613 260.6527h49.613v22.008h-49.613zm461.707 22.008v-22.008h49.613v22.008z" fill="#e6e6e6"/></g></svg>