<svg viewBox="0 0 1000 1000" xmlns="http://www.w3.org/2000/svg"><g transform="matrix(5,0,0,5,0,0)"><path d="M188.582,105.077c4.31,0-62.163-.042-61.957-.016-.3-.063-.427.395-.127.458.51.093,61.449.21,62.131-.063C188.977,105.456,188.845,105.011,188.582,105.077Z" fill="#c7423f"></path><path d="M134.511,102.6c-.014.239.38.247.38-.079.244-.733.141-16.016.111-16.358.578.054.607.017,4.52.047,0,0-.095,14.984-.079,15.521,0,.285.047.585.031.869-.015.237.348.222.364,0,0,.078.032-.153.032-.237.255-2.555.094-13.93.094-16.3a.17.17,0,0,0,0-.237.886.886,0,0,0-.663-.143c-.1,0-4.009.036-4.426.095-.109-.087-.269-.023-.269.19-.1.6-.145,15.673-.142,15.774A4.8,4.8,0,0,1,134.511,102.6Z" fill="#c7423f"></path><path d="M145.939,102.406c-.016.237.348.221.363,0,0,.031,0-.016.016-.063,0-.032,0-.064.016-.079.206-.82.079-15.139.079-20.8.564.05,4.653.032,4.552.032-.038.263-.086,21.014-.079,20.911-.016.237.348.221.364,0,0,.031,0-.032.015-.063a.2.2,0,0,1,.016-.095c.2-.8.1-20.66.063-20.9l.016-.016a.172.172,0,0,0,0-.237.965.965,0,0,0-.664-.142c-.1,0-3.935.039-4.394.11a.141.141,0,0,0-.253.048C146.049,81.216,145.877,103.33,145.939,102.406Z" fill="#c7423f"></path><path d="M157.761,102.406c-.016.237.348.237.364,0a7.408,7.408,0,0,0,.079-1.138c.126-2.767.045-24.69.016-24.926.417.037.318.032,4.552.032,0,.187-.048.24-.048.379v25.653a.166.166,0,1,0,.332,0,25.937,25.937,0,0,0,.158-3.24c.09-5.756-.118-22.95-.016-22.95a.17.17,0,0,0,0-.237c-.293-.2.013-.16-4.425-.079a4.122,4.122,0,0,0-.616.047.147.147,0,0,0-.269.016c0,.082-.06.09-.032.174C157.734,76.751,157.755,102.508,157.761,102.406Z" fill="#c7423f"></path><path d="M169.963,102.3v.079c-.016.237.348.237.364,0v-.095a.287.287,0,0,1,.015-.111c.2-1.181.1-29.132.064-29.461.566.05,4.653.032,4.552.032a1.347,1.347,0,0,1-.056.284v29.335a.17.17,0,1,0,.34,0v-.095a.342.342,0,0,1,.016-.126c.179-1.075.131-29.245.063-29.446V72.6c.063,0,.125-.161.032-.253a.331.331,0,0,0-.095-.064,4.616,4.616,0,0,0-1.723-.047,29.437,29.437,0,0,0-3.224.095c-.032-.127-.253-.127-.269,0,0,.058-.056.14-.031.19-.068.407-.151,28.5-.111,29.666C169.963,102.232,169.963,102.263,169.963,102.3Z" fill="#c7423f"></path><path d="M170.659,64.567a19.266,19.266,0,0,0-4.031-.5.193.193,0,0,0-.047.379,27.727,27.727,0,0,0,3.746.679,57.575,57.575,0,0,1-5.674,3.652c-11.977,6.806-24.574,8.759-29.462,9.925-.284.064-.158.459.111.411,1.264-.174,2.529-.442,3.777-.711C149.156,76.256,159.206,73,167.8,67.46c1.014-.641,2.483-1.673,2.8-1.913-.027.192,0,.24-.158,1.391-.094.711-.268,1.407-.347,2.118-.032.348.5.395.6.079a25.058,25.058,0,0,0,.522-3.493C171.3,64.7,171.415,64.662,170.659,64.567Z" fill="#c7423f"></path><path d="M194.367,24.421a.348.348,0,0,0-.395-.3c-.1,0-177.22.407-177.322.458a.3.3,0,0,0-.537.19c0,1.229.527,94.449.458,95.133-.016.427.648.427.68,0,.131-2.463.133-2.659-.49-94.675,2.069.03,176.768-.521,176.958-.521,0,4.76.522,94.148.458,94.785-.015.427.648.427.68,0C195.32,110.788,194.38,24.55,194.367,24.421Z" fill="#333333"></path><path d="M47.9,114.07a.314.314,0,0,0-.192-.2,38.657,38.657,0,0,0-3.134-7.313c.377-.635.271-5.2.181-6.377a.325.325,0,0,0-.4-.3c-5.012.893-10.445,2.782-13.83,6.591a2.008,2.008,0,0,0-.6.853c-.079.379.19.806.316,1.155a58.938,58.938,0,0,0,3,6.432.176.176,0,0,0,.14.084c-.962,1.722.4,4.2,2.057,4.2.031.316.158.632.205.933.3,1.654-.334,2.584-.19,3.113a.187.187,0,0,0,.269.111c.766-.535.679-3.4.284-4.236a2.606,2.606,0,0,0,1.518-1.075.224.224,0,0,0-.237-.331c-.573.147-1.868,1.808-3.114.031-1.022-1.449-.316-3.2.853-3.13a2.636,2.636,0,0,1,.759.238c.1.033.594-.135.6-.4.032-1.3.236-2.594.348-3.888.034-.4-.063-.505.284-.679a75.191,75.191,0,0,1,7.23-3.036c.259.627.868,1.849.973,2.167a1.416,1.416,0,0,0-1.248.3.209.209,0,0,0,.2.348,1.615,1.615,0,0,1,.964-.016c.094.019.231.039.3-.031a45.134,45.134,0,0,1,1.684,4.552,7.837,7.837,0,0,1-9.08,1.059c-.51-.509-.888.029-.569.347a6.441,6.441,0,0,1,1.738,3.051c.177.748.033,1.243.727,1.485a13.1,13.1,0,0,0,3.766.816c-.036.381.116,1.371.454,1.588.111.062.3.015.316-.127.049-.29-.241-.762-.331-1.448C47,120.917,49.171,118.261,47.9,114.07Zm-2.149,4.268a1.17,1.17,0,0,1-1.28.221,1.252,1.252,0,0,1-.728-1.011c0-.127.159-.191.222-.127.284.285.49.766.964.759s.744-.518.933-.664C46.217,117.236,46.4,117.81,45.748,118.338Z" fill="#333333"></path><path d="M44.752,112.806a4.328,4.328,0,0,1,.443,1.075c0,.309-.656.369-.965.347-.154,0-.359.177-.284.364a.306.306,0,0,0,.269.2,1.6,1.6,0,0,0,1.391-.442c.316-.427.031-.965-.159-1.391a7.066,7.066,0,0,0-1.786-2.529c-.142-.111-.379.031-.268.2A18.228,18.228,0,0,1,44.752,112.806Z" fill="#333333"></path><path d="M40.485,111.763a2.307,2.307,0,0,1,.412-.6c.168-.154.267-.132.422-.349.242-.34-.119-.494-.342-.435a1.577,1.577,0,0,0-.888,1.063C40.014,111.821,40.376,111.979,40.485,111.763Z" fill="#333333"></path><path d="M14.089,130.935a4.123,4.123,0,0,0,.775-2.261,14.106,14.106,0,0,0-.79-2.386,4.733,4.733,0,0,1,.189-2.561c.016-.158-.205-.221-.3-.126a2.641,2.641,0,0,0-.522,1.976c.071,1.622,1.363,2.647.727,4.109a14.281,14.281,0,0,0-.853,1.786c-.158.553-.174,1.438.442,1.739a.152.152,0,0,0,.206-.206A1.93,1.93,0,0,1,14.089,130.935Z" fill="#333333"></path><path d="M11.213,123.727c.045.317.031.759.268,1a.237.237,0,0,0,.38-.095c.147-.356-.134-.785-.19-2.023-.047-.68-.063-1.375-.095-2.055-.015-.189-.3-.237-.332-.047A11.542,11.542,0,0,0,11.213,123.727Z" fill="#333333"></path><path d="M9.427,124.723a1.169,1.169,0,0,0,.253.648.214.214,0,0,0,.363-.095,1.194,1.194,0,0,0-.031-.664,31.564,31.564,0,0,1-.475-4.868c-.015-.174-.284-.237-.316-.047A14.175,14.175,0,0,0,9.427,124.723Z" fill="#333333"></path><path d="M7.4,124.66c.095.316.142.79.49.932a.182.182,0,0,0,.221-.094c.245-.441-.355-.785-.885-4.268-.032-.221-.411-.174-.4.048A15.727,15.727,0,0,0,7.4,124.66Z" fill="#333333"></path><path d="M8.4,132.5c-1.835-3-2.2-6.016-3.018-9.246-.048-.2-.4-.158-.364.048a24.2,24.2,0,0,0,2.624,9.072c.221.4.49.79.711,1.185.47.806.429.972.68,1.107a.215.215,0,0,0,.3-.127C9.492,134.164,9.117,133.673,8.4,132.5Z" fill="#333333"></path><path d="M7.372,127.062a.132.132,0,0,0,.158.206c2.748-1.406,3.58-.668,4.378-.806.174-.032.158-.253.048-.348C11.37,125.668,8.773,125.662,7.372,127.062Z" fill="#333333"></path><path d="M143.252,128.769A3.926,3.926,0,0,0,144,126.62a13.212,13.212,0,0,0-.743-2.276,4.628,4.628,0,0,1,.19-2.434c.015-.158-.19-.206-.285-.111a2.532,2.532,0,0,0-.49,1.881c.069,1.529,1.278,2.5.695,3.888a15.046,15.046,0,0,0-.805,1.691c-.143.522-.174,1.375.41,1.66a.14.14,0,0,0,.19-.19A1.91,1.91,0,0,1,143.252,128.769Z" fill="#333333"></path><path d="M140.5,121.925c.037.3.031.728.253.949a.222.222,0,0,0,.363-.095,1.874,1.874,0,0,0-.079-.933,25.925,25.925,0,0,1-.189-2.939c-.016-.174-.285-.238-.317-.048A10.715,10.715,0,0,0,140.5,121.925Z" fill="#333333"></path><path d="M138.811,122.874a1.228,1.228,0,0,0,.237.616.212.212,0,0,0,.347-.094,1.087,1.087,0,0,0-.031-.633,31.545,31.545,0,0,1-.459-4.631c-.015-.158-.268-.221-.3-.047A13.492,13.492,0,0,0,138.811,122.874Z" fill="#333333"></path><path d="M136.882,122.811c.087.3.143.758.459.885a.191.191,0,0,0,.221-.095c.244-.44-.4-.856-.838-4.062-.031-.222-.395-.158-.379.047A14.937,14.937,0,0,0,136.882,122.811Z" fill="#333333"></path><path d="M137.831,130.271c-1.752-2.9-2.055-5.5-2.877-8.788-.047-.19-.379-.158-.348.047a23.214,23.214,0,0,0,2.5,8.63c.221.379.458.759.679,1.138.453.776.388.939.648,1.059a.2.2,0,0,0,.285-.11C138.837,131.945,138.662,131.645,137.831,130.271Z" fill="#333333"></path><path d="M140.075,123.949a4.311,4.311,0,0,0-3.224,1.137c-.111.111.031.254.158.19,2.546-1.3,3.479-.635,4.157-.758.173-.032.158-.237.047-.332A2.16,2.16,0,0,0,140.075,123.949Z" fill="#333333"></path><path d="M79.24,121.151c-.459-.395-1.044-.569-1.518-.917a5.778,5.778,0,0,0-1.6-1,1.751,1.751,0,0,0-1.6.254c-1.6,1.185-1.3,2-1.091,3.271a6.055,6.055,0,0,1-.095,2.2.158.158,0,0,0,.285.127c1-1.8-.421-3.368.474-4.457a2.518,2.518,0,0,1,1.106-.886c1-.3,1.865.838,2.64,1.265a3.284,3.284,0,0,1,1.169.774.617.617,0,0,1-.2,1,2.514,2.514,0,0,1-2.2-.284,5.769,5.769,0,0,0-.632-.459c-.143-.079-.269.063-.206.206a3.088,3.088,0,0,0,2.877,1.138A1.2,1.2,0,0,0,79.24,121.151Z" fill="#333333"></path><path d="M77.77,119.207c.69-1.237,1.312-3.249,1.881-4.141.094-.142.2-.269.3-.411a31.056,31.056,0,0,1-.964,4.916c-.032.221.284.426.411.173a20.9,20.9,0,0,0,1.059-4.8c.031-.269.047-.617-.19-.791-.661-.557-1.469,1.412-1.786,2.213a27.7,27.7,0,0,0-1.043,2.7A.183.183,0,0,0,77.77,119.207Z" fill="#333333"></path><path d="M79.319,120.677c-.1.172.142.379.284.221a3.321,3.321,0,0,1,.98-.774c.657-.329.762.047,1.043.095.3.074.431-.5-.3-.7A2.118,2.118,0,0,0,79.319,120.677Z" fill="#333333"></path><path d="M80.362,121.562c-.142.111.047.332.189.253.447-.26.766-.61,1.075-.79.507-.254.671.053.933.158s.388-.472-.237-.68C81.422,120.2,80.711,121.288,80.362,121.562Z" fill="#333333"></path><path d="M82.922,122.384c-.132-.673-1.036-.536-1.549.079-.11.126.032.363.19.253.142-.095.727-.443.885-.253.063.079,0,.379-.031.474-.319,1.595-3.762,3.333-3.762,5.026a.19.19,0,0,0,.348.095,7.05,7.05,0,0,1,1.327-1.865C81.151,125.349,83.21,123.843,82.922,122.384Z" fill="#333333"></path><path d="M78.07,128.532a21.244,21.244,0,0,1-4.931-2.892.359.359,0,0,0-.411.047,37.2,37.2,0,0,0-6.1,6.212,20.845,20.845,0,0,0-.822,5.073.211.211,0,0,1-.411.064c-.419-1.375.195-3.5.711-5.121-.379-.38-2.639-2.624-3.366-3.367-3.695-3.7-7.637-8.1-13.135-8.2a8.107,8.107,0,0,0-4.21,1.045c-1.054.609-1.626,1.875-4.717,2.171a12.457,12.457,0,0,1-4.175-.245c-1.13-.4-.278-.948-2.751-.948-4.908.131-9,4.526-11.316,8.93a49.406,49.406,0,0,0-2.834,6.739c.71,1.175,3.108,5.651,3.245,7.012.015.221-.269.253-.38.095-.577-.828-.546-1.662-2.45-5.169a18.465,18.465,0,0,0-5.184-6.353c-.542-.453-.665-.513-1.438-.174-.187.083-4.326,1.792-4.426,1.833a.356.356,0,0,0-.253.332c-.041.629,1.747,7.742,6.149,14.509,1.343,2.055,3,4.094,5.421,4.9,2.634.9,4.605.015,6.559-1.976a31.054,31.054,0,0,0,4.442-5.879c-.465-1.858-1.361-5.533-1.691-7.429a.188.188,0,0,1,.363-.095c1.627,5.227,1.61,9.19,6.291,16.991a.352.352,0,0,0,.474.127c8.58-4.119,17.581-7.119,26.838-4.805a.264.264,0,0,0,.331-.253,12.044,12.044,0,0,0-1.153-4.489c-1.761-3.982-5.068-9.609-5.011-14.146,0-.174.285-.221.316-.047.863,5.062,1.806,6.583,4.805,12.9,3.474.237,5.876-.22,8.109-2.892a43.55,43.55,0,0,0,7.349-14.114C78.37,128.769,78.244,128.594,78.07,128.532ZM49.952,142.425a13.8,13.8,0,0,1-2.308-1.865,7.692,7.692,0,0,1-1.612-2.386c-.063-.158.206-.269.285-.127.958,1.99,3.138,3.374,3.84,4.109A.17.17,0,0,1,49.952,142.425Z" fill="#c7423f"></path><path d="M116.035,108.38c-2.97-7.311-14.729-7.058-16.944,2.4a11.729,11.729,0,0,0,1.771,9.626c.094.111.284.016.2-.126a13.252,13.252,0,0,1-1.754-8.219c.977-7.575,8.327-10.088,13.15-7.129,2.781,1.724,3.68,4.235,3.84,7.413a11.289,11.289,0,0,1-3.6,9.168c-.237.2.111.537.332.331C117.033,118.49,117.588,112.2,116.035,108.38Z" fill="#333333"></path><path d="M108.211,115.129a3.015,3.015,0,0,0-1.075.364c-.158.079-.047.316.111.284,1.255-.342,1.88-.183,2.1-.316a.186.186,0,0,0,.032-.3A2.2,2.2,0,0,0,108.211,115.129Z" fill="#333333"></path><path d="M101.873,115.1a.136.136,0,0,0,.032.268,12.275,12.275,0,0,1,2.181.253.253.253,0,0,0,.19-.221C104.276,114.959,102.666,114.853,101.873,115.1Z" fill="#333333"></path><path d="M105.682,114.971c-.031-.158-.268-.111-.268.032a3.148,3.148,0,0,1-.759,2.118c-.127.142-.316.268-.316.474,0,.447,1.123,1.041,1.375.727a.193.193,0,0,0,0-.253c-.095-.126-.332-.111-.474-.158-.112-.045-.427-.227-.427-.3A2.95,2.95,0,0,0,105.682,114.971Z" fill="#333333"></path><path d="M105.192,120.724a1.626,1.626,0,0,0,1.3-.031.855.855,0,0,0,.522-.791,1.676,1.676,0,0,0-.158-.98c-.187-.234-.446-.078-.421.191a1.506,1.506,0,0,1,.085.536,1.136,1.136,0,0,1-.064.419,1.251,1.251,0,0,1-1.386.119C104.794,120.078,104.669,120.478,105.192,120.724Z" fill="#333333"></path><path d="M36.154,156.935c-1.47,2.487-4.525,13.721-4.489,15.015,0,.189.285.284.364.095.4-.8.881-4.489,3.287-11.649a34.456,34.456,0,0,1,1.186-3.24C36.628,156.9,36.294,156.7,36.154,156.935Z" fill="#333333"></path><path d="M63.94,152.32a.188.188,0,0,0-.364.094,100.011,100.011,0,0,1,2.276,13.751c.252,3.436.223,3.361.317,3.92.047.268.41.174.426-.063C66.787,167.651,65.709,157.7,63.94,152.32Z" fill="#333333"></path><path d="M54.441,164.932c-.573.15-3.881,3.2-5.263,6.654-.064.174.205.285.3.127a22.4,22.4,0,0,1,3.019-4.362c-.063.726-.079,1.469-.095,2.2a8.742,8.742,0,0,0,.047,2.419.208.208,0,0,0,.4,0,10.017,10.017,0,0,0,.127-2.419,21.309,21.309,0,0,0-.043-2.661c.1-.095.122-.136.217-.231,1.037-1.037,1.307-1.083,1.485-1.423C54.741,165.059,54.615,164.887,54.441,164.932Z" fill="#333333"></path><path d="M54.03,153.11c-.032-.19-.348-.143-.348.047.111,1.9.3,3.778.411,5.674.118,1.769.211,5.4.316,5.659a.2.2,0,0,0,.38,0A67.171,67.171,0,0,0,54.03,153.11Z" fill="#333333"></path><path d="M51.975,162.593a13.127,13.127,0,0,0,.285,2.908.156.156,0,0,0,.3,0,5.374,5.374,0,0,0,.016-1.422c-.256-3.958-.442-6.942-.9-10.29-.016-.174-.285-.174-.269,0C51.526,156.757,51.791,159.733,51.975,162.593Z" fill="#333333"></path><path d="M118.011,155.006a5.486,5.486,0,0,0-1.107-.9c.063-.458.276-1.249.269-1.533-.7-.312-8.017-4.064-8.551-4.346a12.2,12.2,0,0,1-1.83-1.077c-7.566,3.784-7.227,3.913-8.949,4.6a21.117,21.117,0,0,0,.49,2.481,19.45,19.45,0,0,0-7.666,8.677,10.675,10.675,0,0,0-1.091,3.225.248.248,0,0,0,.459.126c.757-1.6.669-2.463,2.4-5.279,5.018-8.028,10.493-8.346,19.978-7.176,4.432.56,4.483.847,6.2,2.956a42.149,42.149,0,0,1,5.39,8.9c1.057,2.291,1.175,2.941,1.612,3.636a.2.2,0,0,0,.363-.158C125.841,167.916,122.46,159.611,118.011,155.006Z" fill="#333333"></path><path d="M125.55,136.419a22.064,22.064,0,0,0-2.987-10.89,6.478,6.478,0,0,0-3.715-2.956,7.661,7.661,0,0,0-6.264.911,9.492,9.492,0,0,1-.3-4.214,2.023,2.023,0,0,0,1.881-2.276c-.129-.9-.839-1.685-1.66-1.533,0-.328-.122-.306-.442-1.375-.032-.095-.063-.19-.095-.284a.168.168,0,0,0,.142-.222c-.547-1.485-7.8-3.2-10.463-1.738a.149.149,0,0,0-.269.047,29.771,29.771,0,0,0-.363,4.331c-.036,3.056.839,6.606,3.872,7.065a6.949,6.949,0,0,1-.224,1.38c-2.337-1.377-5.377-.775-7.505.754-2.45,1.754-3.951,4.473-5.358,7.064-2.562,4.712-6.532,13-3.24,17.213a6.162,6.162,0,0,0,3.54,2.1,11.108,11.108,0,0,0,5.582-.352c.754-.37,6.123-3.661,17.147-8.657-3.943-1.852-9.437-1.1-13.64.016a24.465,24.465,0,0,0-5.786,2.212c-.714.532-.95.075-.638-.25a11.885,11.885,0,0,1,2.677-1.362,10.249,10.249,0,0,1,.665-3.619,2.805,2.805,0,0,1,.616-1.106.191.191,0,0,1,.316.173c-.125.81-.909,1.37-1.122,4.363a39.409,39.409,0,0,1,8.582-1.929c2.99-.3,6.318-.275,8.819,1.375a8.329,8.329,0,0,1,1.36-.158c0-.1.041-.655.047-.758.036-.589.016-3.372.016-3.588,0-.19.316-.253.348-.048a22.312,22.312,0,0,1,.142,4.41,8.872,8.872,0,0,1,1.407.19c.363.079.923.139,1.122.474a.2.2,0,0,1-.11.285c-.285.095-.544-.086-1.107-.191a9.866,9.866,0,0,0-3.383-.078c-1.935.881-3.979,1.791-8,3.777.7.233,3.343,1.594,3.588,1.723,7.955,4.094,8.353,4.633,10.589,3.335a7.981,7.981,0,0,0,3.114-3.872C125.67,145.215,125.7,139.592,125.55,136.419Zm-18.477-4.6a67.029,67.029,0,0,1-1.778-7.2,3.835,3.835,0,0,0,.119-1.273,5.446,5.446,0,0,0,3.809-1.5,4.653,4.653,0,0,0,1.343-1.644c.079-.206-.2-.3-.332-.19a9.786,9.786,0,0,1-2.623,2.324,4.166,4.166,0,0,1-3.193.315,3.888,3.888,0,0,1-2.308-2.512c-1.078-2.85-.318-6.632-.379-7.951a13.57,13.57,0,0,1,2.007-.411,14.175,14.175,0,0,1,6.259.981,4.459,4.459,0,0,1,1.707,1,4.231,4.231,0,0,0,.016.458,4.7,4.7,0,0,0,.379,1.2.514.514,0,0,0,.158.157.71.71,0,0,0-.331.317.16.16,0,0,0,.252.189c.444-.459,1.461.128,1.5,1.2a1.5,1.5,0,0,1-1.612,1.517.256.256,0,0,0-.253.189,9.852,9.852,0,0,0,0,3.6c.04.242.148,1.022.405,1.23C111.94,124.31,107.14,131.719,107.073,131.819Z" fill="#333333"></path><path d="M162.345,115.872c-.289.183-.282.671-.774.806a1.585,1.585,0,0,1-1.139-.348.16.16,0,0,0-.252.19,1.513,1.513,0,0,0,1.47.632,1.357,1.357,0,0,0,.885-.7.65.65,0,0,0,.142-.411A.22.22,0,0,0,162.345,115.872Z" fill="#333333"></path><path d="M164.953,140.118a.887.887,0,0,0-.4-.174c-1-.334-1.448-1.887-2.182-2.719a9.62,9.62,0,0,0-2.244-1.58,1.9,1.9,0,0,1-.49-.633c-.126-.252-.442-.063-.411.174.171,1.081,1.816,1.24,2.861,2.466.711.848.92,1.947,1.976,2.592.237.127.616.316.869.158A.2.2,0,0,0,164.953,140.118Z" fill="#333333"></path><path d="M156.149,137.857a8.284,8.284,0,0,0,2.434.9c.348.064.933.237,1.249,0a.165.165,0,0,0,.032-.252c-.326-.326-.576-.083-2.308-.617a22.869,22.869,0,0,1-2.213-1.011.171.171,0,0,0-.19.252A2.878,2.878,0,0,0,156.149,137.857Z" fill="#333333"></path><path d="M158.567,140.7c.416.051.46.054.727-.079.111-.048.079-.19,0-.254a4.378,4.378,0,0,0-1.359-.41,7.156,7.156,0,0,1-3.445-2.45c-.143-.174-.4.047-.3.237A6.411,6.411,0,0,0,158.567,140.7Z" fill="#333333"></path><path d="M155.912,141.192c.352.2,1.738.9,2.118.759a.2.2,0,0,0,.111-.269c-.277-.461-1.8-.343-3.636-2.181a.16.16,0,0,0-.252.19A4.4,4.4,0,0,0,155.912,141.192Z" fill="#333333"></path><path d="M160.148,144.243c-2.366-.728-3.713-1.027-5.358-2.671a.153.153,0,0,0-.237.189c1.454,2.51,5.519,2.649,7.966,3.983a4.9,4.9,0,0,0,1.027.538.172.172,0,0,0,.19-.253C163.3,145.229,161.022,144.513,160.148,144.243Z" fill="#333333"></path><path d="M170.912,124.265a42.576,42.576,0,0,0-5.643.569,60.048,60.048,0,0,0-13.514,3.84.512.512,0,0,0-.268.822c2.354,3.973,2.758,4.913,4.077,7.018.111.19.38.031.3-.174-.931-2.011-3.511-6.387-3.73-6.733-.276-.482-.3-.4-.127-.49a59.839,59.839,0,0,1,17.434-4.268c.426-.031.837-.063,1.248-.126a7.993,7.993,0,0,0,.617,1.344c4.777,9.872,5.239,12.848,5.911,13.956.079.142.364.095.332-.095C177.392,138.2,171.47,124.327,170.912,124.265Z" fill="#333333"></path><path d="M169.284,148.842c-1.255-.1-6.69.991-7.919,1.249-2.168-4.855-2.211-4.966-2.5-5.327-.095-.126-.285.016-.253.143.128.639,2.371,5.463,2.418,5.563.123.244.115.072,4.283-.664a32.534,32.534,0,0,0,4.031-.664C169.505,149.1,169.458,148.856,169.284,148.842Z" fill="#333333"></path><path d="M182.75,121.641c-1.744-3.123-4.058-3.794-7.539-3.367a11.854,11.854,0,0,0-4.912,1.573,14.257,14.257,0,0,1-1.189-5.018,1.622,1.622,0,0,0,1.454-1.183c4.245-2.356,4.463-7.377,2.4-11.7-3.472-7.213-13.993-6.029-17.212.016a5.712,5.712,0,0,0,1.411,7.47c-2.434.823-2.294,3.782-.051,4.195-.039,2.612.322,5.087,2.734,6.054a5.064,5.064,0,0,0,1.928.378,6.206,6.206,0,0,1-.137,1.6,18.032,18.032,0,0,0-4.7-.478c-4.746.1-6.8,4.19-8.535,8.566a26.318,26.318,0,0,0-1.6,5.137c0,.189.285.285.364.095a20.462,20.462,0,0,0,.711-2.166,48.268,48.268,0,0,1,2.529-6.243c1.248-2.387,3.208-4.583,6.037-4.805a24.555,24.555,0,0,1,5.106.285.244.244,0,0,0,.031.206c.869,1.01,2.387,1.01,3.62.931a7.277,7.277,0,0,0,4.03-1.263c2.189-1.643.089-1.385,3.132-2.419,2.243-.764,5.388-1.269,7.442-.19,1.643.888,2.543,2.641,3.287,4.347a35.72,35.72,0,0,1,2.482,9.025c.441,3.065.75,8.962,0,11.965-.961,3.91-3.877,5.819-7.745,5.784a20.927,20.927,0,0,1-6.1-1.375c-2.2-.695-7.6-2.4-8.109-2.576a28.883,28.883,0,0,0,1.692-6.038c.031-.141.031-.284.189-.348a1.606,1.606,0,0,1,.474-.062,36.927,36.927,0,0,1,9.626.269,35.553,35.553,0,0,1,4.062.884c.19.048.395.048.6.079a.222.222,0,0,0,.111-.411c-.649-.324-.021-.135-2.118-.664a37.3,37.3,0,0,0-12.17-.774c-1.772.19-.933.238-2.2,4.615-.773,2.684-.808,2.816-.506,2.908,2.292.728,9.12,2.908,10.242,3.257,3.1.936,6.443,1.262,9.262-.617.97,7.965,1.057,7.446.869,7.539a1.192,1.192,0,0,1-.411.079,82.617,82.617,0,0,1-14.762,1.027c-5.375,0-10.668-.046-15.821-1.184a120.48,120.48,0,0,1,1.122-14.241c.016-.205-.3-.238-.348-.048-.2.917-.363,1.849-.506,2.782-.375,0-1.551,1.771-4.251,2.418a6.079,6.079,0,0,1-4.71-.727c-3.8-2.428-4.874-10.522-5.927-14.635,1.559.045,3.2-.851,4.694-1.487.127-.062.252-.113.379-.174.405-.191.309-.112.917.7,3.449,4.822,3.712,8.488,4.315,9.61.067.124.223.047.237-.063a11.347,11.347,0,0,0-.822-3.478,25.947,25.947,0,0,0-3.272-6.274c-1.053-1.438-.721-1.331-2.8-.411-3.388,1.561-4.1.994-4.015,1.407a.144.144,0,0,0-.047.141,46.019,46.019,0,0,0,2.892,11.065,9.4,9.4,0,0,0,2.877,3.9c2.834,2.062,7.1,1.212,9.451-1.311a93.252,93.252,0,0,0-.742,11.032.306.306,0,0,0,.205.268,72.8,72.8,0,0,0,15.616,1.249,81.491,81.491,0,0,0,15.695-1.106.717.717,0,0,0,.632-.427,2.515,2.515,0,0,0-.063-1.027c-.095-.759-.19-1.518-.3-2.261-.617-4.87-.565-4.6-.712-4.678,2.747-2.111,3.23-5.435,3.288-8.915C186.666,134.354,185.7,126.778,182.75,121.641Zm-26.808-10.013a1.985,1.985,0,0,1,1.551-1.636,1.58,1.58,0,0,1,1.549,1.739,1.664,1.664,0,0,1-1.312,1.375A1.52,1.52,0,0,1,155.942,111.628Zm10.465,10.835a6.819,6.819,0,0,1-4.3-.374,3.576,3.576,0,0,0,.049-2.044,8.143,8.143,0,0,0,5.342-3.067c.147-.186-.145-.509-.379-.3a13.152,13.152,0,0,1-3.209,2.4c-2.311,1.055-5.2.493-6-2.118a10.717,10.717,0,0,1-.364-3.256,2.248,2.248,0,0,0,1.976-1.645,3.6,3.6,0,0,0,.063-.41l.379-.094c-.189.647-.331,1.311-.458,1.975-.095.5-.332,1.3.379,1.438a2.542,2.542,0,0,0,1.786-.347.249.249,0,0,0-.253-.428,2.955,2.955,0,0,1-.711.27,1.5,1.5,0,0,1-.743,0c-.135-.075-.106-.252.174-1.518q.166-.711.379-1.423a2.08,2.08,0,0,1,.68.174,2.072,2.072,0,0,0,2.166,2.165,2.264,2.264,0,0,0,2.023-1.643,2.2,2.2,0,0,0-1.85-2.671,2.458,2.458,0,0,0-2.212,1.612,2.171,2.171,0,0,0-.633-.158c.142-.458.269-.9.4-1.36.047-.173-.225-.3-.317-.126a10.882,10.882,0,0,0-.616,1.486,1.674,1.674,0,0,0-.569.158,2.2,2.2,0,0,0-1.6-1.755c.068-.422.2-1.113.238-1.261.872-.823,4.378-.484,5.515-.335a21.4,21.4,0,0,1,3.508.806c.324.1.391.1.443.458a8.427,8.427,0,0,0,.76,2.535c-.226.222-.024.464.157.358.727-.443,1.423.253,1.517.98a1.153,1.153,0,0,1-1.233,1.344.278.278,0,0,0-.347.268c.037,1.5.579,4.539,1.448,5.71A5.052,5.052,0,0,1,166.407,122.463Zm-4.521-11.112c.146-.423,1.152-1.522,2.04-1.074a1.579,1.579,0,0,1-.38,3A1.458,1.458,0,0,1,161.886,111.351Z" fill="#333333"></path><path d="M154.015,157.883c-.846,1.44-3.426,11.882-3.619,14.035-.032.285.411.332.49.063.233-.828.5-2.608,1.2-5.5,1.017-4.213,1.577-5.756,1.913-6.986a10.393,10.393,0,0,0,.4-1.533C154.426,157.772,154.109,157.724,154.015,157.883Z" fill="#333333"></path><path d="M167.118,169.105v-.079a.172.172,0,0,0-.142-.174c-.158-.269-.316-.522-.49-.775a.167.167,0,0,0-.285.174c.143.3.285.6.427.886a26.218,26.218,0,0,0-1.644,5.01.188.188,0,0,0,.364.095c.339-.934.948-3.2,1.565-4.537a41.9,41.9,0,0,1,2.4,6.054c.111.269.459.063.427-.174A33.517,33.517,0,0,0,167.118,169.105Z" fill="#333333"></path><path d="M181.944,161.439a24.6,24.6,0,0,0-1.028-3.382c-.063-.158-.347-.079-.316.079.179,1.431.334,1.414,3,12.091a28,28,0,0,0,.9,3.414c.079.205.427.205.411-.047C184.78,172.334,182.262,162.663,181.944,161.439Z" fill="#333333"></path><path d="M66.548,65.658c-.677-4.393-3.284-8.867-7.46-10.226a16.744,16.744,0,0,0-12.376,1.6c-5.516,3.082-7.307,8.505-5.99,14.51,1.791,8.06,8.513,13.359,8.661,18.824-1.224.408-1.947,2.5-.711,3.4a1.686,1.686,0,0,0-.032,2.7,1.532,1.532,0,0,0-.189,1.912,3.852,3.852,0,0,0,2.8,1.423,13.249,13.249,0,0,0,3.7.316c3.2-.247,3.919-2.1,3.018-3.114a1.758,1.758,0,0,0,.317-2.861A2.819,2.819,0,0,0,59.04,92.2a1.423,1.423,0,0,0-1.122-1.675c.539-5.15,4.8-8.319,7.413-15.268A19.43,19.43,0,0,0,66.548,65.658ZM53.54,67.286c-.437-.437-.64-1.2-.127-1.581.38-.268.727.127.759.49A1.312,1.312,0,0,1,53.54,67.286Zm-.253.932c.063-.032.111-.063.174-.094a5.638,5.638,0,0,0,3.1,1.217c-.332.964-.585,1.975-.822,2.955a67.92,67.92,0,0,0-1.976,18.177c-.648-.032-1.3-.064-1.96-.095.676-6.279.388-16.728-1.343-21.575A5.536,5.536,0,0,0,53.287,68.218ZM65.22,73.355c-2.392,8.112-7.532,11.3-7.982,17.291-.015.016-.047.048-.047.064-.917-.095-1.833-.174-2.766-.222A67.779,67.779,0,0,1,55.5,76.564a57.353,57.353,0,0,1,1.77-7.255,2.972,2.972,0,0,0,2.5-1.423c.794-1.7-1.458-3.2-2.955.791a4.814,4.814,0,0,1-2.782-.964c1.729-1.519.322-3.195-.822-2.64-.77.374-1.11,1.463-.221,2.561a4.778,4.778,0,0,1-2.735.49,5.914,5.914,0,0,0-1.312-2.2c-1.18-.977-2.574.172-1.991,1.153a4.537,4.537,0,0,0,2.845,1.628,27.715,27.715,0,0,1,1.138,5.185c1.113,7.479.395,14.885.395,16.421-.893-.04-1.29-.065-1.454-.047,0-5.053-5.11-9.23-7.729-16.2-2.172-5.793-1.63-11.713,3.224-15.426,4.065-3.127,11.37-4.42,15.521-1.644a12.345,12.345,0,0,1,4.584,6.939A16.728,16.728,0,0,1,65.22,73.355Zm-7.681-4.726a7.03,7.03,0,0,1,.616-1.122c1.087-1.569,1.5-.187.7.522A2.646,2.646,0,0,1,57.539,68.629Zm-8.03-.648a4.463,4.463,0,0,1-1.548-.774,1.408,1.408,0,0,1-.49-.522c-.122-.394.677-.928,1.375.095A7.428,7.428,0,0,1,49.509,67.981Z" fill="#333333"></path><path d="M23.351,34.015c.105.011,11.56.168,12.85.158a15.6,15.6,0,0,0,3.446-.158c.19-.063.221-.379,0-.411a6.937,6.937,0,0,0-1.517-.031c-3.125.094-13.106-.239-14.842-.016C23,33.573,23.1,33.989,23.351,34.015Z" fill="#333333"></path><path d="M23.351,38.773c.059,0,11.23.17,12.85.158a15.6,15.6,0,0,0,3.446-.158c.19-.063.221-.38,0-.411a6.937,6.937,0,0,0-1.517-.032c-3.125.095-13.106-.238-14.842-.016C23,38.346,23.1,38.754,23.351,38.773Z" fill="#333333"></path><path d="M83.381,35.912c.055,0,11.227.17,12.85.158a15.589,15.589,0,0,0,3.445-.158c.19-.063.221-.379,0-.411a7,7,0,0,0-1.517-.032c-3.125.095-13.106-.238-14.842-.015C83.033,35.485,83.144,35.894,83.381,35.912Z" fill="#333333"></path><path d="M83.381,40.685c.1.011,11.426.169,12.85.158a15.589,15.589,0,0,0,3.445-.158c.19-.063.221-.379,0-.411a6.936,6.936,0,0,0-1.517-.031c-3.125.094-13.106-.239-14.842-.016C83.033,40.243,83.143,40.659,83.381,40.685Z" fill="#333333"></path><path d="M42.6,54.468a60.108,60.108,0,0,0-4.947-9.405c.585.158,2.4.617,2.719.712a1.954,1.954,0,0,0,.98.158.285.285,0,0,0,.126-.475,2.271,2.271,0,0,0-1.027-.347c-.364-.095-1.786-.443-2.134-.522-.859-.2-1.349-.537-1.628.3a22.924,22.924,0,0,0-.9,3.225.188.188,0,0,0,.364.1,17.752,17.752,0,0,0,.98-2.735,92.976,92.976,0,0,1,5.073,9.152C42.318,54.847,42.694,54.69,42.6,54.468Z" fill="#c7423f"></path><path d="M76.821,47.734c-.083-.458-.506-.419-1.77-.584a19.753,19.753,0,0,0-2.2-.206.186.186,0,0,0-.047.364,16.472,16.472,0,0,0,2.876.521,85.447,85.447,0,0,1-8.171,6.481c-.221.158-.032.521.221.379A44.909,44.909,0,0,0,72.3,51.544c2.238-1.7,3.8-3.2,3.9-3.272-.063.616-.237,2.513-.269,2.845a1.878,1.878,0,0,0,.016.98.289.289,0,0,0,.49,0,.972.972,0,0,0,.126-.522C76.658,50.5,76.89,48.021,76.821,47.734Z" fill="#c7423f"></path><path d="M81.484,75.41A20.927,20.927,0,0,0,79.1,73.071a.19.19,0,0,0-.268.268,15.637,15.637,0,0,0,1.912,2.166c-.589.1-4.052.158-5.01.142-1.818-.016-3.651-.079-5.469-.174-.237-.016-.3.395-.063.427a59.5,59.5,0,0,0,10.621.253c-2.584,2.679-2.512,2.567-2.56,2.8a.283.283,0,0,0,.347.348c.355-.1.386-.311,2.324-2.371a6.488,6.488,0,0,0,.7-.774C81.863,75.884,81.69,75.63,81.484,75.41Z" fill="#c7423f"></path><path d="M119.876,57.629a15.52,15.52,0,0,0-15.9-1.881.348.348,0,0,0-.49.363,149.352,149.352,0,0,0,4.552,18.856.327.327,0,0,0,.585.079C120.567,57.034,120.126,57.879,119.876,57.629Z" fill="#c7423f"></path><path d="M188.693,43.246a2.479,2.479,0,0,0-3.967-1.17c-.156-.892.165-6.314-.154-8-.09-.472-.139-.475-.684-.468-.593.009-7.606.042-7.634.048-.215.036-.372.411-.016.7a2.139,2.139,0,0,1-.617,3.256,2.248,2.248,0,0,1-3.192-1.343c-.253-.9.411-1.565.774-2.324a.208.208,0,0,0-.189-.3l-28.482-.063a.283.283,0,0,0-.284.284c.031,1.217.11,7.018.126,8.693a2.547,2.547,0,0,0-3.936,1.249,3.055,3.055,0,0,0,.981,3.477,2.61,2.61,0,0,0,3.018,0c0,.379.079,7.934.079,7.934a.284.284,0,0,0,.206.269c.336.078,8.857.064,8.756.063a3.349,3.349,0,0,0-.885,1.5,2.555,2.555,0,0,0,3.635,2.829,2.9,2.9,0,0,0,1.233-4.331c16.477,0,15.412.1,15.648-.047.173-.126-.048-.3-.127-.411a2.327,2.327,0,0,1,1.581-3.793,2.371,2.371,0,0,1,1.8.806,1.828,1.828,0,0,1,.143,2.244c-.253.481-.833,1.223-.316,1.28,0,0,7.987-.056,8.234-.063.538.111.538-.095.538-.189,0-2.909-.111-5.8-.143-8.709C186.812,47.7,189.322,45.432,188.693,43.246Zm-1.533,2.671c-1.562,1.164-2.814-.7-2.972.174.032,2.955.048,5.895.142,8.851-2.56.047-5.105.047-7.665.047,1.833-2.07-.7-5.089-3.1-4.062a2.866,2.866,0,0,0-1.328,4.062c-2.386-.016-4.773,0-7.16-.047-.063-2.64-.11-5.279-.142-7.9a2.529,2.529,0,0,1-2.924.364,3.239,3.239,0,0,1-1.66-2.672,2.716,2.716,0,0,1,3.161-2.845,1.917,1.917,0,0,1,1.376.728c-.032-2.814-.064-5.627-.111-8.441,2.545.048,5.089.048,7.65.048-1.77,2.07.774,5.026,3.145,4.014,1.47-.6,2.323-2.687,1.265-4,2.4-.016,4.805.015,7.191-.048.238.919-.379,9.641.538,8.867C186.7,40.227,189.831,43.924,187.16,45.917Z" fill="#c7423f"></path><path d="M119.307,61.027c-.052.1-9.8,14.768-9.737,14.667a1.463,1.463,0,0,1-2.623-.363,150.145,150.145,0,0,1-4.22-16.849A19.82,19.82,0,0,0,92.674,69.42c-4.065,11.47,4.207,22.466,16.723,21.1,7.639-.819,14.061-6.023,15.362-13.64A16.9,16.9,0,0,0,119.307,61.027Z" fill="#c7423f"></path><path d="M41.961,112.719c-.706.107-.246,1.019.288.848A.448.448,0,0,0,41.961,112.719Z" fill="#333333"></path><path d="M45.525,111.383a.463.463,0,0,0-.214.72.5.5,0,0,0,.627.085.509.509,0,0,0,.137-.566A.425.425,0,0,0,45.525,111.383Z" fill="#333333"></path><path d="M156.566,111.724a.413.413,0,1,0,.315.764C157.295,112.355,157.132,111.517,156.566,111.724Z" fill="#333333"></path><path d="M162.4,111.9a.414.414,0,1,0,.308.769C163.127,112.5,162.942,111.713,162.4,111.9Z" fill="#333333"></path></g></svg>